<?xml version="1.0" standalone="no"?>
<!DOCTYPE svg PUBLIC "-//W3C//DTD SVG 1.1//EN" "http://www.w3.org/Graphics/SVG/1.1/DTD/svg11.dtd" >
<!--
2013-9-30: Created.
-->
<svg>
<metadata>
Created by iconfont
</metadata>
<defs>

<font id="iconfont" horiz-adv-x="1024" >
  <font-face
    font-family="iconfont"
    font-weight="500"
    font-stretch="normal"
    units-per-em="1024"
    ascent="896"
    descent="-128"
  />
    <missing-glyph />
    
    <glyph glyph-name="jineng" unicode="&#58887;" d="M892.096 55.008l-217.024 220.544c-10.24 10.24-26.752 10.24-36.992 0L622.272 261.024 584.832 298.912c0 0 59.904 65.792 62.848 64.448 63.872-28.48 109.12-15.68 161.088 34.88 45.76 45.76 55.424 111.808 31.616 163.712l-89.6-88c-9.024-9.024-23.68-9.024-32.64 0l-38.208 38.144c-9.024 9.024-9.024 23.68 0 32.704l85.632 85.056c-49.216 15.616-107.456 2.176-148.992-39.36-67.84-65.024-57.408-111.488-33.92-163.264 0.96-2.176-60.096-67.392-60.096-67.392L518.528 359.84 322.368 557.408c0 0 8.576 25.856-6.144 40.64L284.48 628.384 224.384 568.288l31.744-30.336c0 0 24.128-14.72 41.536-6.272l191.424-193.728 3.84-6.72L242.304 102.88l-32.704-32.768c-28.672-28.608-28.672-75.008 0-103.616 28.608-28.544 74.944-28.544 103.616 0l32.704 32.832c0 0 147.136 190.144 211.456 266.816l34.56-34.816L572.992 209.632c-10.24-10.112-10.24-26.688 0-36.928l215.68-217.664c10.176-10.24 26.752-10.24 36.928 0l66.496 63.04C902.336 28.256 902.336 44.896 892.096 55.008zM294.336 21.088c-8.96-9.024-23.552-9.024-32.576 0-9.024 8.96-9.024 23.552 0 32.64 9.024 9.024 23.616 9.024 32.576 0C303.36 44.64 303.36 29.984 294.336 21.088zM817.92-12.32c-4.352-4.288-11.392-4.288-15.68 0L608.96 190.624c-4.288 4.288-4.288 11.392 0 15.68 4.352 4.288 11.392 4.288 15.68 0l193.344-202.944C822.272-0.928 822.272-8.032 817.92-12.32zM858.048 27.744c-4.288-4.288-11.328-4.288-15.68 0l-193.28 203.008c-4.352 4.352-4.352 11.328 0 15.68 4.288 4.288 11.328 4.288 15.616 0l193.344-202.944C862.4 39.136 862.4 32.16 858.048 27.744z"  horiz-adv-x="1024" />

    
    <glyph glyph-name="jineng-copy" unicode="&#58902;" d="M958.539 88.181l-280.946 285.503c-13.257 13.257-34.63 13.257-47.888 0l-20.464-18.807-48.467 49.047c0 0 77.549 85.17 81.359 83.431 82.685-36.868 141.261-20.298 208.534 45.153 59.238 59.238 71.748 144.74 40.928 211.932l-115.99-113.92c-11.683-11.683-30.655-11.683-42.254 0l-49.461 49.378c-11.683 11.683-11.683 30.655 0 42.337l110.853 110.108c-63.712 20.214-139.106 2.817-192.876-50.954-87.822-84.176-74.316-144.326-43.91-211.351 1.243-2.817-77.795-87.242-77.795-87.242h-5.22l-253.936 255.759c0 0 11.103 33.472-7.954 52.61l-41.093 39.27-77.795-77.795 41.093-39.27c0 0 31.235-19.056 53.771-8.119l247.806-250.788 4.971-8.7-324.442-295.61-42.337-42.42c-37.117-37.034-37.117-97.102 0-134.134 37.034-36.951 97.018-36.951 134.134 0l42.337 42.502c0 0 190.474 246.148 273.738 345.405l44.739-45.071-24.524-28.086c-13.257-13.090-13.257-34.548 0-47.805l279.206-281.774c13.173-13.257 34.63-13.257 47.805 0l86.082 81.609c13.257 13.173 13.257 34.715 0 47.805zM184.716 44.271c-11.599-11.683-30.489-11.683-42.172 0-11.683 11.599-11.683 30.489 0 42.254 11.683 11.683 30.571 11.683 42.172 0 11.683-11.764 11.683-30.737 0-42.254zM862.515 1.024c-5.633-5.551-14.747-5.551-20.298 0l-250.208 262.72c-5.551 5.551-5.551 14.747 0 20.298 5.633 5.551 14.747 5.551 20.298 0l250.292-262.72c5.551-5.551 5.551-14.747-0.083-20.298zM914.462 52.888c-5.551-5.551-14.665-5.551-20.298 0l-250.208 262.802c-5.633 5.633-5.633 14.665 0 20.298 5.551 5.551 14.665 5.551 20.214 0l250.292-262.72c5.633-5.633 5.633-14.665 0-20.382z"  horiz-adv-x="1024" />

    
    <glyph glyph-name="jineng1" unicode="&#58929;" d="M857.43946 457.312685c50.495921 87.455863 50.815921 203.743682 4.319994 294.97554l-135.999788-235.551632-248.927611 143.711775L612.799843 896c-102.20784-5.375992-202.751683-63.7759-253.343605-151.263764-55.967913-96.927849-50.463921-229.375642 12.255981-323.679494L142.400577 23.713363c-23.807963-41.215936 1.503998-100.415843 56.479912-132.159794 55.007914-31.74395 118.911814-24.063962 142.687777 17.183974l229.375642 397.311379c113.055823-7.103989 230.49564 54.303915 286.495552 151.263763zM232.480437-61.470504c-27.519957 15.903975-40.159937 45.471929-28.255956 66.079897 11.903981 20.607968 43.839932 24.511962 71.327888 8.607986 27.487957-15.839975 40.159937-45.471929 28.255956-66.015897-11.871981-20.671968-43.839932-24.511962-71.327888-8.671986z"  horiz-adv-x="1024" />

    
    <glyph glyph-name="gongji" unicode="&#58888;" d="M505.37931 150.06896600000005l370.758621 370.75862-13.241379 57.379311-392.827586-392.827587zM439.172414 119.172414c4.413793-4.413793 13.241379-8.827586 17.655172-8.827586l-26.482758 26.482758c4.413793-4.413793 4.413793-8.827586 8.827586-17.655172zM434.758621 141.24137900000005v8.827587l-185.379311 185.37931c0-4.413793 4.413793-13.241379 8.827587-17.655173l176.551724-176.551724zM937.931034 489.931034L840.827586 873.931034c-4.413793 8.827586-8.827586 17.655172-17.655172 17.655173-8.827586 4.413793-17.655172 0-26.482759-4.413793L280.275862 375.172414l35.310345-35.310345 485.517241 481.103448 61.793104-242.75862 8.827586 8.827586c8.827586 8.827586 26.482759 8.827586 35.310345 0 8.827586-8.827586 8.827586-26.482759 0-35.310345l-30.896552-30.896552 8.827586-30.896552-366.344827-361.931034 35.310344-35.310345 375.172414 370.758621c8.827586 8.827586 13.241379 17.655172 8.827586 26.482758zM500.965517 75.03448300000002c4.413793-4.413793 8.827586-4.413793 13.24138-8.827586l-48.551725 48.551724h-8.827586l44.137931-39.724138zM907.034483 551.724138c8.827586 8.827586 8.827586 26.482759 0 35.310345-8.827586 8.827586-26.482759 8.827586-35.310345 0l-8.827586-8.827586 13.241379-57.379311 30.896552 30.896552zM434.758621 141.24137900000005l26.482758-26.482758h8.827587l-35.310345 30.896551v-4.413793zM465.655172 180.96551699999998l4.413794 4.413793-154.482759 154.482759-4.413793-4.413793zM518.62069 66.20689700000003s-4.413793 0 0 0l39.724138-39.724138-39.724138-39.724138L408.275862 101.51724100000001c0-8.827586 0-17.655172-4.413793-22.068965l-22.068966-22.068966 119.172414-119.172413c4.413793-4.413793 13.241379-8.827586 17.655173-8.827587 4.413793 0 13.241379 4.413793 17.655172 8.827587l70.62069 70.620689c8.827586 8.827586 8.827586 26.482759 0 35.310345l-52.965518 52.965517-22.068965-22.068965c0-4.413793-8.827586-8.827586-13.241379-8.827586zM306.758621 203.03448300000002l-136.827587 136.827586 35.310345 35.310345 39.724138-39.724138c0 8.827586 4.413793 13.241379 8.827586 17.655172l22.068966 22.068966-52.965517 52.965517c-8.827586 8.827586-26.482759 8.827586-35.310345 0L116.965517 357.517241c-8.827586-8.827586-8.827586-26.482759 0-35.310344l145.655173-145.655173 22.068965 22.068966c4.413793 4.413793 13.241379 8.827586 22.068966 4.413793zM501.804138 145.655172l3.089655 3.089656 15.668966-15.536552-3.089656-3.133793zM298.416552 138.59310300000004l3.089655 3.133794 46.830345-46.786207-3.089655-3.133793zM465.92 181.53931l3.089655 3.133793 37.517242-37.428965-3.177931-3.133793zM249.37931 335.44827599999996L434.758621 145.655172c0 4.413793 4.413793 4.413793 4.413793 8.827587l22.068965 22.068965-154.482758 154.482759 4.413793 4.413793-35.310345 35.310345-22.068966-22.068966c-4.413793 0-4.413793-8.827586-4.413793-13.241379zM518.62069 128l-17.655173 17.655172-26.482758-26.482758c-4.413793-4.413793-4.413793-4.413793-8.827587-4.413793l48.551725-48.551724h4.413793c4.413793 0 13.241379 4.413793 17.655172 8.827586l22.068966 22.068965-39.724138 30.896552zM439.172414 158.89655200000004c-4.413793-4.413793-4.413793-4.413793-4.413793-8.827586l30.896551-30.896552c4.413793 0 4.413793 4.413793 8.827587 4.413793l26.482758 22.068965-35.310345 35.310345-26.482758-22.068965zM196.413793-57.37931000000003l-48.551724 48.551724L297.931034 141.24137900000005l-35.310344 35.310345-167.724138-167.724138c-8.827586-8.827586-8.827586-26.482759 0-35.310345l83.862069-83.862069c4.413793-4.413793 13.241379-8.827586 17.655172-8.827586s13.241379 4.413793 17.655173 8.827586L381.793103 57.37931000000003l-35.310344 35.310345-150.068966-150.068965zM320 198.62068999999997c-4.413793 4.413793-8.827586 4.413793-13.241379 4.413793L408.275862 101.51724100000001c0 4.413793-4.413793 8.827586-4.413793 13.24138l-83.862069 83.862069zM408.275862 101.51724100000001l-101.517241 101.517242c-8.827586 0-17.655172 0-22.068966-4.413793l-22.068965-22.068966 35.310344-35.310345 48.551725-48.551724 35.310344-35.310345 22.068966 22.068966c4.413793 4.413793 8.827586 13.241379 4.413793 22.068965z"  horiz-adv-x="1024" />

    
    <glyph glyph-name="gongjiqusan" unicode="&#58880;" d="M782.6 361.4c12.5 0 22.6 10.1 22.6 22.6 0 12.5-10.1 22.6-22.6 22.6H38.4c-8.1 0-15.5-4.3-19.5-11.3-4-7-4-15.6 0-22.6 4-7 11.5-11.3 19.5-11.3h744.2zM61 496.7h248c12.2 0.4 21.8 10.4 21.8 22.6 0 12.2-9.6 22.1-21.8 22.6H61c-8.1 0-15.5-4.3-19.5-11.3-4-7-4-15.6 0-22.6 4-7 11.4-11.3 19.5-11.3z m248-225.5H61c-12.5 0-22.6-10.1-22.6-22.6 0-12.5 10.1-22.6 22.6-22.6h248c12.5 0 22.6 10.1 22.6 22.6 0 12.5-10.1 22.6-22.6 22.6z m0 0M1007.8 388.7c-0.1 0.5-0.3 0.9-0.5 1.4-0.5 1.8-0.8 3.5-1.8 5.2-2.9 5.1-7.9 8.8-13.6 10.2L364.2 741.7c-0.1 0-0.2 0-0.3 0.1-5 3.1-11 4-16.7 2.5-11.5-3.1-18.3-15.2-15.2-26.9l70.3-249.6c3.1-11.8 14.9-18.7 26.4-15.6 11.5 3.2 18.3 15.2 15.2 27l-56.5 200.7L939.9 384 387.4 88.2l56.5 200.7c3.1 11.8-3.7 23.9-15.2 27-11.5 3.2-23.3-3.8-26.4-15.6L332 50.7c-3.1-11.7 3.7-23.8 15.2-27 5.9-1.6 11.8-0.5 16.7 2.5 0.1 0.1 0.2 0.1 0.3 0.1L992 362.4c5.7 1.4 10.7 5.1 13.6 10.2 0.9 1.7 1.3 3.4 1.7 5.2 0.2 0.5 0.3 0.9 0.5 1.4 0.3 1.6 0.4 3.2 0.3 4.8 0.1 1.6 0 3.2-0.3 4.7z m0 0"  horiz-adv-x="1024" />

    
    <glyph glyph-name="gongji1" unicode="&#58881;" d="M698.604308 836.923077c-5.238154-0.905846-11.027692-3.426462-15.36-6.695385-8.940308-6.774154-14.375385-19.416615-12.996923-30.168615 0.275692-1.890462 14.375385-57.619692 31.586461-124.455385 17.092923-66.56 31.113846-121.304615 31.113846-121.619692 0-0.512-21.267692-9.137231-109.371077-44.386462l-36.706461-14.651076-2.993231 2.048c-3.544615 2.481231-7.483077 4.332308-12.248615 5.828923l-3.505231 1.102769-59.943385 0.118154c-57.777231 0.078769-60.100923 0.078769-63.684923-0.669539-7.128615-1.457231-14.020923-5.041231-19.731692-10.358154-1.496615-1.378462-3.662769-3.032615-4.804923-3.662769-2.914462-1.575385-7.798154-5.592615-10.397539-8.507077-3.899077-4.489846-128.905846-150.134154-131.032615-152.694154-7.246769-8.743385-10.515692-19.062154-9.491692-29.971692 2.048-21.858462 20.519385-38.006154 42.299077-36.903385 9.373538 0.433231 17.408 3.584 24.418461 9.570462 1.890462 1.614769 15.202462 16.777846 39.463385 45.016615l36.548923 42.614154 0.236308-80.068923c0.196923-72.782769 0.275692-80.344615 0.866461-82.707692 1.339077-5.395692 3.072-9.649231 5.356308-13.154462l1.024-1.575384 0.196923-103.187693c0.196923-93.853538 0.275692-103.424 0.866461-105.747692 4.253538-16.896 16.659692-28.868923 32.886154-31.704615 20.873846-3.623385 40.763077 9.176615 46.513231 29.971692l1.063385 3.899077 0.118153 94.601846 0.07877 94.641231h11.815384v-93.577846c0-92.435692 0-93.617231 0.787693-97.476923 2.993231-14.729846 13.469538-26.348308 27.766153-30.79877 4.608-1.457231 9.058462-2.008615 14.139077-1.732923 20.558769 0.984615 36.706462 16.856615 38.439385 37.691077 0.236308 2.717538 0.393846 44.110769 0.393846 103.817846v99.328l1.496616 2.481231c1.890462 3.150769 3.387077 6.616615 4.52923 10.515692l0.866462 3.032616 0.196923 108.228923 0.196923 108.268308 71.286154 28.514461c39.227077 15.675077 71.561846 28.593231 71.876923 28.672 0.393846 0.118154 1.024-0.748308 2.048-2.875077 3.190154-6.616615 9.767385-11.776 17.644308-13.863384 5.041231-1.299692 12.721231-0.157538 18.313846 2.678153 3.505231 1.851077 8.900923 7.168 10.712615 10.555077 2.481231 4.726154 3.072 7.325538 3.072 13.233231v5.395692l-3.820308 7.719385-3.859692 7.719385 0.787692 1.929846c4.568615 11.618462 2.835692 26.033231-4.371692 36.745846-0.905846 1.378462-3.150769 3.938462-4.923077 5.750154l-3.268923 3.268923-19.889231 131.072c-11.933538 78.572308-20.243692 132.135385-20.755692 133.789538-4.292923 14.060308-17.880615 23.945846-32.571077 23.748923-1.890462-0.039385-4.253538-0.196923-5.277538-0.354461zM499.987692 729.009231c-44.701538-2.835692-83.022769-33.476923-95.822769-76.603077-3.032615-10.200615-4.174769-18.432-4.174769-30.129231 0-12.642462 1.299692-21.149538 4.923077-32.531692 16.265846-50.806154 67.623385-82.077538 119.926154-72.979693 38.596923 6.695385 70.459077 33.752615 83.062153 70.498462 9.688615 28.278154 7.364923 58.525538-6.537846 84.992-5.159385 9.846154-10.318769 16.699077-19.062154 25.442462-8.979692 9.019077-15.832615 14.060308-26.308923 19.495384-17.211077 8.900923-36.745846 13.036308-56.004923 11.815385z"  horiz-adv-x="1024" />

    
    <glyph glyph-name="ziyuan" unicode="&#58988;" d="M322.239889 76.71009100000003l331.220928 417.608587a201.02531 201.02531 0 0 1 204.710091 71.648532 202.25357 202.25357 0 0 1 34.800716 186.286183l-88.02534-111.36229-120.369533 31.115934-57.318826 111.77171L716.102105 895.550457a209.623134 209.623134 0 0 1-176.050679-76.561575 200.61589 200.61589 0 0 1-22.51811-216.173856L186.312388 186.02527999999995a152.304308 152.304308 0 0 1-135.9275-59.365926 156.39851 156.39851 0 1 1 245.652109-193.655747A152.713728 152.713728 0 0 1 322.239889 76.71009100000003z m-118.731853-127.329676l-81.884037 12.282605-31.115933 78.199255 51.996363 66.326069 83.931137-12.282605 31.115934-78.199255zM703.819499 295.74988900000005l-55.681145 47.083321-52.405783-61.413027-320.576003 272.264421L220.703684 645.8041450000001 97.877629 722.77514 39.739963 654.811389l94.166642-109.724609 99.489104-38.485497 320.576003-271.855001-52.405783-62.641288 56.090565-47.083321a74.514473 74.514473 0 0 0 81.884036-6.960143 72.057952 72.057952 0 0 0 20.88043-81.884037L834.833958-110.39493200000004a66.32607 66.32607 0 0 1 94.166642 6.960143l61.003607 71.648532a65.916649 65.916649 0 0 1-6.960143 93.757222l-176.050679 146.572425a73.695633 73.695633 0 0 0-81.884036 6.960143 72.467372 72.467372 0 0 0-20.88043 81.884037z"  horiz-adv-x="1024" />

    
    <glyph glyph-name="f-run" unicode="&#59187;" d="M831.390476 418.133333s-124.342857-26.819048-158.47619-36.571428c-34.133333-9.752381-75.580952 58.514286-87.771429 60.952381-7.314286-21.942857-31.695238-82.895238-43.885714-124.342857 21.942857 0 134.095238-34.133333 136.533333-53.638096 4.87619-19.504762 56.07619-236.495238 56.076191-236.495238s21.942857-46.32381-41.447619-63.390476c-63.390476-17.066667-65.828571 34.133333-65.828572 34.133333s-43.885714 165.790476-48.761905 175.542858c-2.438095 9.752381-85.333333 26.819048-104.838095 21.942857-19.504762-4.87619-58.514286-146.285714-99.961905-156.038096-51.2-12.190476-202.361905 80.457143-202.361904 80.457143s-58.514286 14.628571-46.32381 70.704762S195.047619 230.39999999999998 195.047619 230.39999999999998s107.27619-58.514286 119.466667-51.2c12.190476 7.314286 19.504762 46.32381 36.571428 87.771429 0 14.628571 43.885714 131.657143 43.885715 131.657142s24.380952 78.019048 14.628571 82.895239c-12.190476 7.314286-26.819048-7.314286-34.133333-19.504762-7.314286-12.190476-34.133333-60.952381-80.457143-124.342858-41.447619-56.07619-114.590476-4.87619-82.895238 48.761905 24.380952 43.885714 92.647619 170.666667 141.409524 195.047619s134.095238 36.571429 204.8 19.504762c73.142857-17.066667 121.904762-97.52381 136.533333-109.714286 14.628571-9.752381 109.714286 21.942857 109.714286 21.942858s56.07619 19.504762 68.266666-31.695238c17.066667-51.2-41.447619-63.390476-41.447619-63.390477zM604.647619 627.809524c-51.2-14.628571-102.4 14.628571-117.028571 65.828571-14.628571 51.2 17.066667 102.4 65.828571 117.028572s102.4-17.066667 117.028571-65.828572c14.628571-53.638095-14.628571-104.838095-65.828571-117.028571z"  horiz-adv-x="1024" />

    
    <glyph glyph-name="f-run-taopao" unicode="&#58886;" d="M831.390476 418.133333s-124.342857-26.819048-158.47619-36.571428c-34.133333-9.752381-75.580952 58.514286-87.771429 60.952381-7.314286-21.942857-31.695238-82.895238-43.885714-124.342857 21.942857 0 134.095238-34.133333 136.533333-53.638096 4.87619-19.504762 56.07619-236.495238 56.076191-236.495238s21.942857-46.32381-41.447619-63.390476c-63.390476-17.066667-65.828571 34.133333-65.828572 34.133333s-43.885714 165.790476-48.761905 175.542858c-2.438095 9.752381-85.333333 26.819048-104.838095 21.942857-19.504762-4.87619-58.514286-146.285714-99.961905-156.038096-51.2-12.190476-202.361905 80.457143-202.361904 80.457143s-58.514286 14.628571-46.32381 70.704762S195.047619 230.4 195.047619 230.4s107.27619-58.514286 119.466667-51.2c12.190476 7.314286 19.504762 46.32381 36.571428 87.771429 0 14.628571 43.885714 131.657143 43.885715 131.657142s24.380952 78.019048 14.628571 82.895239c-12.190476 7.314286-26.819048-7.314286-34.133333-19.504762-7.314286-12.190476-34.133333-60.952381-80.457143-124.342858-41.447619-56.07619-114.590476-4.87619-82.895238 48.761905 24.380952 43.885714 92.647619 170.666667 141.409524 195.047619s134.095238 36.571429 204.8 19.504762c73.142857-17.066667 121.904762-97.52381 136.533333-109.714286 14.628571-9.752381 109.714286 21.942857 109.714286 21.942858s56.07619 19.504762 68.266666-31.695238c17.066667-51.2-41.447619-63.390476-41.447619-63.390477zM604.647619 627.809524c-51.2-14.628571-102.4 14.628571-117.028571 65.828571-14.628571 51.2 17.066667 102.4 65.828571 117.028572s102.4-17.066667 117.028571-65.828572c14.628571-53.638095-14.628571-104.838095-65.828571-117.028571z"  horiz-adv-x="1024" />

    
    <glyph glyph-name="xingzhuanggongnengtubiao-" unicode="&#58912;" d="M93.866667 302.933333l279.466666 162.133334c42.666667 25.6 98.133333-6.4 87.466667-55.466667V85.333333c10.666667-51.2-42.666667-81.066667-87.466667-55.466666L93.866667 189.866667c-44.8 25.6-44.8 87.466667 0 113.066666zM917.333333 294.4c76.8 123.733333 49.066667 251.733333-27.733333 330.666667-44.8 44.8-108.8 74.666667-177.066667 74.666666h-194.133333c-32 0-57.6-25.6-57.6-57.6 0-29.866667 25.6-55.466667 55.466667-55.466666h189.866666c38.4 0 72.533333-14.933333 98.133334-40.533334 46.933333-46.933333 61.866667-130.133333 0-202.666666-17.066667-19.2-53.333333-36.266667-78.933334-36.266667H458.666667v-110.933333h275.2c74.666667 0 145.066667 36.266667 183.466666 98.133333z"  horiz-adv-x="1024" />

    
    <glyph glyph-name="fanhui2" unicode="&#58885;" d="M173.7 583.5c-11 0-20-9-20-20v-15.1c0-11 9-20 20-20H852c11 0 20-9 20-20v-369.1c0-11-9-20-20-20H323.6c-11 0-20-9-20-20v-15.1c0-11 9-20 20-20H907c11 0 20 9 20 20V563.5c0 11-9 20-20 20H173.7zM341.6 361c7.8 7.8 7.8 20.5 0 28.3L189 541.8c-7.8 7.8-7.8 20.5 0 28.3l152.6 152.6c7.8 7.8 7.8 20.5 0 28.3L331 761.6c-7.8 7.8-20.5 7.8-28.3 0L150.1 609c-7.8-7.8-14.1-14.1-14.2-14.1 0 0-6.4-6.4-14.2-14.1L111 570.1c-7.8-7.8-7.8-20.5 0-28.3l191.5-191.5c7.8-7.8 20.5-7.8 28.3 0l10.8 10.7z"  horiz-adv-x="1024" />

    
    <glyph glyph-name="icon-" unicode="&#58901;" d="M753.86 35.40999999999997c-8.28-5.77-16.86-11.3-25.52-16.46-11.87-7.06-15.76-22.4-8.7-34.27 4.68-7.86 12.98-12.22 21.51-12.22 4.35 0 8.75 1.14 12.76 3.52 9.68 5.76 19.29 11.96 28.54 18.4 11.33 7.89 14.11 23.48 6.22 34.8-7.9 11.34-23.48 14.12-34.81 6.23zM948.17 566.9300000000001c-23.83 56.34-57.93 106.93-101.37 150.36-43.44 43.44-94.03 77.54-150.36 101.37-58.34 24.68-120.29 37.19-184.15 37.19S386.47 843.34 328.13 818.66c-56.34-23.83-106.93-57.93-150.36-101.37-43.44-43.44-77.54-94.03-101.37-150.36-24.67-58.34-37.19-120.29-37.19-184.15S51.72 256.97 76.4 198.63c23.83-56.34 57.93-106.93 101.37-150.36 43.44-43.44 94.03-77.54 150.36-101.37 58.34-24.67 120.29-37.19 184.15-37.19 31.52 0 63.03 3.12 93.68 9.28 13.54 2.72 22.3 15.9 19.59 29.43-2.72 13.54-15.89 22.3-29.44 19.59-27.41-5.51-55.61-8.3-83.83-8.3C279-40.289999999999964 89.21 149.5 89.21 382.78S279 805.85 512.28 805.85s423.07-189.79 423.07-423.07c0-114.24-44.83-221.29-126.23-301.46-9.84-9.69-9.96-25.52-0.27-35.35 9.69-9.84 25.52-9.96 35.35-0.27 44.21 43.54 78.94 94.42 103.24 151.23 25.16 58.83 37.91 121.36 37.91 185.85 0 63.85-12.51 125.81-37.18 184.15zM661.21 405.64H446.15l90.97 90.97c9.76 9.76 9.76 25.59 0 35.36-9.76 9.76-25.59 9.76-35.36 0L350.44 380.64l151.32-151.32c4.88-4.88 11.28-7.32 17.68-7.32s12.8 2.44 17.68 7.32c9.76 9.76 9.76 25.59 0 35.36l-90.97 90.97h215.06c13.81 0 25 11.19 25 25s-11.19 24.99-25 24.99z"  horiz-adv-x="1024" />

    
    <glyph glyph-name="fanhui3" unicode="&#58910;" d="M960-64H64v128h768V448H281.6l166.4-166.4-64-89.6L64 512 384 832l64-89.6L281.6 576H960v-640z"  horiz-adv-x="1024" />

    
    <glyph glyph-name="2fanhui" unicode="&#59037;" d="M512-121.60000000000002C230.4-121.60000000000002 6.4 102.39999999999998 6.4 384S230.4 889.6 512 889.6s505.6-224 505.6-505.6-224-505.6-505.6-505.6zM512 812.8a428.8 428.8 0 1 1 0-857.6A428.8 428.8 0 0 1 512 812.8zM729.6 409.6h-320l89.6 108.8c12.8 19.2 12.8 38.4-6.4 57.6-12.8 12.8-38.4 6.4-51.2-6.4L294.4 396.8v-6.4s0-6.4-6.4-6.4v-25.6s0-6.4 6.4-6.4v-6.4l140.8-172.8c6.4-6.4 19.2-12.8 32-12.8 6.4 0 19.2 0 25.6 6.4 19.2 19.2 19.2 38.4 6.4 57.6L409.6 332.79999999999995h320c19.2 0 38.4 19.2 38.4 38.4s-19.2 38.4-38.4 38.4z"  horiz-adv-x="1024" />

    
    <glyph glyph-name="icon-test6" unicode="&#58932;" d="M512 96c-66.112 0-128.32 24.896-182.656 60.096l94.976 94.976A156.256 156.256 0 0 1 512 224c88.224 0 160 71.776 160 160a156.256 156.256 0 0 1-27.072 87.68l101.536 101.536C837.28 497.376 896 402.656 896 384c0-32-171.936-288-384-288m96 288a96 96 0 0 0-96-96c-14.784 0-28.64 3.616-41.088 9.664l127.424 127.424c6.048-12.448 9.664-26.304 9.664-41.088M128 384c0 32 171.936 288 384 288 66.112 0 128.32-24.896 182.656-60.096L277.536 194.784C186.72 270.624 128 365.344 128 384m664.064 234.816l91.328 91.328-45.248 45.248-97.632-97.632C673.472 703.296 595.456 736 512 736 265.248 736 64 452.992 64 384c0-39.392 65.728-148.416 167.936-234.816l-91.328-91.328 45.248-45.248 97.632 97.632C350.528 64.704 428.544 32 512 32c246.752 0 448 283.008 448 352 0 39.392-65.728 148.416-167.936 234.816M512 544c-88.224 0-160-71.776-160-160 0-15.328 2.848-29.856 6.88-43.872l58.592 58.592a95.616 95.616 0 0 0 79.808 79.808l58.592 58.592A157.76 157.76 0 0 1 512 544"  horiz-adv-x="1024" />

    
    <glyph glyph-name="icon-test7" unicode="&#58934;" d="M896 768H128a32 32 0 0 1-32-32v-576a32 32 0 0 1 32-32h288v64H160V704h704v-512h-256c-8.832 0-16.832-3.584-22.656-9.376l-159.968-160 45.248-45.248L621.248 128H896a32 32 0 0 1 32 32V736a32 32 0 0 1-32 32M560 448a48 48 0 1 1-95.968 0.032A48 48 0 0 1 560 448M240 448a48 48 0 1 1 95.968-0.032A48 48 0 0 1 240 448M784 448a48 48 0 1 1-95.968 0.032A48 48 0 0 1 784 448"  horiz-adv-x="1024" />

    
    <glyph glyph-name="tianjia" unicode="&#58895;" d="M511.984 832C264.976 832 64 631.04 64 383.984 64 136.976 264.976-64 511.984-64 759.056-64 960 136.976 960 383.984 960 631.056 759.024 832 511.984 832zM695.76 343.84h-143.616v-143.536A40.224 40.224 0 0 0 512 160.064a40.256 40.256 0 0 0-40.128 40.24v143.52h-143.632a40.208 40.208 0 1 0 0 80.4h143.632v143.584a40.16 40.16 0 1 0 80.288 0v-143.568h143.616a40.208 40.208 0 1 0 0-80.416z"  horiz-adv-x="1024" />

    
    <glyph glyph-name="shimingrenzheng" unicode="&#58972;" d="M449.530286 318.836571l290.102857 289.022858c9.389714 9.355429 24.585143 9.325714 33.940571-0.062858 9.355429-9.390857 9.325714-24.586286-0.062857-33.941714L466.684571 268.171429l-0.030857-0.030858c-9.317714-9.282286-24.350857-9.325714-33.722285-0.153142L252.390857 443.956571c-9.491429 9.251429-9.686857 24.445714-0.434286 33.938286 9.251429 9.491429 24.445714 9.686857 33.938286 0.434286l163.634286-159.492572z m511.515428 65.278858c0.037714-0.726857 0.042286-1.461714 0.013715-2.202286-2.094857-53.195429-11.216-100.028571-27.513143-140.445714-0.954286-2.365714-5.717714-14.504-7.205715-18.213715-3.451429-8.603429-6.693714-16.270857-10.288-24.179428-9.486857-20.873143-20.395429-41.022857-33.851428-61.557715-35.042286-53.482286-83.862857-104.043429-150.857143-151.296-57.744-40.728-127.466286-77.768-210.524571-110.561142a23.938286 23.938286 0 0 0-8.758858-1.683429 23.933714 23.933714 0 0 0-8.945142 1.682286c-83.058286 32.793143-152.780571 69.834286-210.525715 110.562285-66.994286 47.251429-115.813714 97.813714-150.857143 151.294858-13.454857 20.534857-24.363429 40.685714-33.851428 61.558857-3.593143 7.908571-6.835429 15.574857-10.285714 24.179428-1.489143 3.709714-6.251429 15.846857-7.206858 18.212572-16.251429 40.304-25.366857 86.987429-27.494857 139.998857a24.075429 24.075429 0 0 0-0.608 5.392v400c0 3.019429 0.557714 5.908571 1.576 8.571428 1.822857 9.385143 9.193143 17.158857 19.161143 19.020572L488.297143 890.123429a129.142857 129.142857 0 0 0 47.408 0l405.273143-75.674286c11.318857-2.114286 19.288-11.851429 19.589714-22.913143 0.377143-1.690286 0.576-3.446857 0.576-5.250286v-400c0-0.731429-0.033143-1.456-0.097143-2.171428z m-47.870857 0.912A24.393143 24.393143 0 0 0 913.142857 386.285714V770.817143L526.893714 842.937143a81.142857 81.142857 0 0 1-29.787428 0L110.285714 770.709714v-382.626285c0.307429-1.384 0.496-2.816 0.553143-4.282286 1.888-47.954286 9.96-89.396571 24.067429-124.384 1.060571-2.628571 5.845714-14.822857 7.238857-18.294857 3.2-7.979429 6.170286-15.002286 9.435428-22.186286 8.514286-18.731429 18.260571-36.737143 30.301715-55.113143 31.736-48.434286 76.322286-94.611429 138.373714-138.377143 52.514286-37.04 115.992-71.100571 191.710857-101.638857 75.718857 30.538286 139.196571 64.598857 191.712 101.638857 62.051429 43.765714 106.638857 89.942857 138.373714 138.377143 12.041143 18.377143 21.788571 36.382857 30.302858 55.113143 3.265143 7.184 6.234286 14.206857 9.434285 22.186286 1.394286 3.474286 6.179429 15.666286 7.238857 18.294857 14.107429 34.987429 22.179429 76.430857 24.068572 124.384 0.014857 0.411429 0.041143 0.820571 0.077714 1.226286z"  horiz-adv-x="1024" />

    
    <glyph glyph-name="diamonds" unicode="&#58925;" d="M1079.390827 522.830113L605.253586-59.09660199999996v-4.093271h-6.139907l-40.2505-49.119254a23.195203 23.195203 0 0 0-39.568288 0L9.682633 528.287808a60.034644 60.034644 0 0 0-4.093271 57.988008L154.311547 865.982678A62.763491 62.763491 0 0 0 204.795225 896h682.211858a62.081279 62.081279 0 0 0 49.801466-30.017322l148.722185-285.164557a60.034644 60.034644 0 0 0-6.139907-57.988008z m-539.62958-420.924717L719.865178 554.8940709999999h-361.572285zM694.623339 623.115256L541.807883 827.778814 388.992426 623.115256z m-197.159227-596.935376L288.707283 554.8940709999999H75.174971zM193.879835 795.032645L102.463446 623.115256h158.955363z m136.442372-163.048634L474.268909 827.778814h-225.129914zM610.71128 827.778814L750.564712 637.4417060000001 828.336863 827.778814z m281.071286-25.241839L818.785897 623.115256h164.413058zM814.010414 554.8940709999999h-21.148567l-212.167888-534.171886L1017.99176 554.8940709999999z"  horiz-adv-x="1090" />

    
    <glyph glyph-name="dingdan" unicode="&#58914;" d="M1561.437624 423.314069H1175.795159c-11.827251 0-21.42618-10.058106-21.42618-22.462144v-11.186655c0-12.409043 9.598929-22.472153 21.42618-22.472153h385.642465c11.827251 0 21.42618 10.071869 21.42618 22.472153V400.851925c0.010009 12.404038-9.598929 22.462144-21.42618 22.462144zM1359.394689 220.90954699999998H1174.876804c-11.324284 0-20.502821-10.103148-20.502821-22.564739v-11.354311c0-12.447829 9.178538-22.549725 20.502821-22.549726H1359.394689c11.318028 0 20.50157 10.091887 20.50157 22.549726v11.354311c0 12.461591-9.183542 22.564739-20.50157 22.564739zM1752.004885 896h-766.771983C960.312222 896 940.127196 875.091802 940.127196 849.296558v-930.58686c0-25.786486 20.185026-46.709698 45.105706-46.709698h545.815204c8.312732 1.735364 23.023916 6.808833 38.512073 21.832808l204.805505 205.39105s17.775284 17.134688 22.754917 45.64746v704.42524C1797.110591 875.091802 1776.911803 896 1752.004885 896z m-11.445646-789.758364c-0.033781 0.576787-0.112605 1.138559-0.166405 1.701583l0.166405 0.170158v-1.871741z m0 47.05627H1565.435092c-40.212405 0-50.139138-12.087493-50.139138-50.466943v-115.688861l-0.020019-0.025023v-58.994875h-493.794315c-13.698992 0-24.793062 11.490688-24.793062 25.628839v860.474142c0 14.173184 11.094069 25.638849 24.793062 25.638849h694.284557c13.698992 0 24.793062-11.465665 24.793062-25.638849v-660.927279zM1561.437624 637.3268889999999H1175.795159c-11.827251 0-21.42618-10.096892-21.42618-22.55473v-11.354312c0-12.447829 9.598929-22.549725 21.42618-22.549725h385.642465c11.827251 0 21.42618 10.091887 21.42618 22.549725v11.354312c0.010009 12.447829-9.598929 22.55473-21.42618 22.55473z m0 0"  horiz-adv-x="3506" />

    
    <glyph glyph-name="icon-test5" unicode="&#58900;" d="M832.2 512.7l0.3 1.2c0.6 2.9-1.4 6.8-4.9 6.5-0.2 0-0.3 0-0.5-0.1-0.6 0.6-1.2 1.3-1.8 1.9-17.6 16.3-48.2 8.9-69.3 7-30.6-2.8-61.1-5.5-91.7-8.3-13.6-1.2-27.7-3.6-41.5-3.3-15.5 0.4-24.8 8.1-30.6 21.1-2.9 10.2-6.2 20.4-9.7 30.4-0.7 2.3-1.4 4.5-2.1 6.8-4.7 14-10.4 27.7-16.8 41.1-0.8 1.6-1.5 3.2-2.3 4.8-16.1 34.9-35.5 68.3-58.1 99.6-2.1 2.9-6.9 3.7-8.8 0-3-5.9-5.8-11.9-8.6-17.9-5.5 0.4-11-0.7-16.2-4-9.5-6-13.2-16.8-15.7-27.2-3.8-16.5-7-33.1-10.5-49.6-6.7-31.8-11.4-65-21-96a74.2 74.2 0 0 0-5.3-12.9l-2.7 3.6c-4 5.1-12.8 0.1-8.8-5.2 1.9-2.4 3.7-4.8 5.5-7.2-2.5-2.8-5.3-5.3-8.5-7.5-30.6-3.1-61.2-6.6-91.8-10.4-17.5 0.7-34.9 1.1-52.3-0.9-2.5-0.3-5-0.6-7.5-1-2.2 0-4.4-0.1-6.6-0.1-1.7 0-2.9-0.7-3.7-1.7-10.9-2.3-21.5-5.7-31.4-10.5-7.6-1.4-14.9-3.9-18.8-11.4 0-0.1-0.1-0.1-0.1-0.2-4.3-3.4-8.4-7.1-12.3-11.3-2.2-2.4-1.9-6.3 1-8l14.4-8.4c3.8-5.3 9.1-9.7 14.6-12.7 7.1-3.8 14.8-6.3 22.5-9 18.1-10.5 36.2-21.1 54.3-31.6l44.4-25.8c27-26.1 42.6-58.4 43.5-95.5-0.5-2.4-1-4.8-1.5-7.3-4-19.8-8.1-39.6-12.1-59.4-8.2-40.3-16.4-80.5-24.6-120.8-1-5 4.7-8.5 8.5-5 4.3 3.9 8.6 7.6 13 11.3 0.8-0.6 1.8-0.9 2.8-0.9 45.6 2 69.6 39.1 96.1 72.7 7.7 5.6 15.3 11.3 22.8 17.3 13.2 10.5 25.4 24.5 39.9 33.4 0.8 0.3 1.7 0.5 2.6 0.7 23.2-21.5 46.4-43 69.6-64.4 20.6-19.1 40.5-40.4 63.1-57.2 3-2.2 6.1-4.3 9.4-6.1 5.9-4.8 13.3-7.2 20.6-7.4 8.9-1.4 18.1-0.5 26.8 4 23.1 11.9 18.9 37.4 11.6 57.9-10.5 29.4-21.5 58.7-32.2 88-5.1 14-10.3 28.1-15.4 42.1-5.3 14.4-11.3 28.9-13.8 44.1-5.5 33.5 17.3 53.6 40.4 73.4 22.9 19.6 46.9 37.8 71.9 54.5 19.5 13 40 24.6 53.7 44.2 8 11.7 11.9 26.3 6.2 38.6zM470.5 182.2c-7-6.8-13.4-14.5-19.7-22.3-9.4-7.1-18.9-14.1-28.7-20.8-17.5-12-35-24.1-51.9-36.9 0.1 0.5 0.2 0.9 0.3 1.4 0.9 0.4 1.6 1.1 2.1 2.1 0.3 0.7 0.5 1.3 0.6 2 1.6-0.1 3.3 0.6 4.2 2.6 22.3 50.7 48.8 99.4 79.4 145.5 1 0.7 1.7 1.7 2 3 15.6 23.3 32.3 46 49.9 67.9 0.2-3.9 0.5-7.8 0.7-11.7-0.4-1.2-0.3-2.3 0.2-3.2 1.9-31.6 3.8-63.2 5.7-94.7 0.2-2.6 1.9-4.2 3.9-4.7-1.2-0.5-2.3-1.1-3.5-1.7-17.3-4.4-32.7-16.2-45.2-28.5zM335.3 362.7c-19.3 18.2-42.4 32.6-66.2 44.1-9.6 4.6-19.7 8.1-29.8 11.8-12.9 7.5-25.7 15-38.6 22.5-2.2 3.3-3.5 6.9-3.1 10.5 12.5 3.8 25.7-0.3 37.7-4.8 12.2-4.6 24.1-9.8 36.2-14.7 26.8-11 53.5-22 80.3-33 3.1-1.3 6.3-2.6 9.4-3.9 1.1-1.4 2.9-2.1 4.7-1.9 16.2-6.7 32.3-13.4 48.5-20.1 0.8-0.5 1.6-0.9 2.5-1 22.9-9.5 45.7-19 68.6-28.5-29.9-10.8-58.2-25.4-84.3-43.6-0.6-0.1-1.2-0.2-1.8-0.5-3.5-1.8-6.1-4.1-8.3-7.1-0.1-0.2-0.3-0.4-0.4-0.6-0.4-0.6-0.7-1.2-1.1-1.8 1.3 7.7 2 15.4 0.7 23-2 11.8-9.4 20.8-18.8 27.8-11.3 8.2-24 14.8-36.2 21.8z m156.4 328.8c0.4-0.1 0.8-0.3 1.2-0.4-0.5-1-0.6-2.1-0.3-3.4 0.1-0.5 0.3-1 0.4-1.6-0.1-0.6-0.1-1.2 0-1.8 0-0.2 0.1-0.4 0.1-0.6-0.2-0.4-0.3-0.8-0.4-1.2-1.2-8.7-1.1-17 0.7-25.6 5.8-97.1 11.7-194.1 17.5-291.2-1.6 3.1-3.2 6.2-4.8 9.2 0.4 2.4-1 4.6-3 5.6-7.3 13.5-14.9 26.9-22.8 40-1.4 4.3-3.8 8.4-7.4 12.1-12.7 20.5-26.2 40.6-40.3 60.1 5.4 4.3 9.9 9.6 12.9 16.3 5.6 12.7 5.5 27.4 7.2 41 2.2 17.8 5.4 35.6 9.5 53.1 7 30.5 17 60 29.5 88.4z m83.8-134.2c0.4-1.3 0.8-2.7 1.2-4 0-0.1 0.1-0.2 0.1-0.3-3.7 0.9-7.4 1.7-11.1 2.5l-0.5 0.5c2.1-0.2 4.2-0.5 6.2-0.7 1.9-0.2 3.3 0.7 4.1 2z m126.9-98l19.5-39c0.2-0.4 0.4-0.7 0.7-1-1.2-0.6-2.4-1.3-3.5-2-6.8 13.3-13.8 26.4-21 39.4 1.4 0.9 2.9 1.8 4.3 2.6z m8-47.5c-0.2-0.1-0.4-0.2-0.5-0.4-1-0.3-2-0.6-3-1-1.9 5.9-3.5 11.8-4.9 17.8 2.8-5.4 5.6-10.9 8.4-16.4z m-12.5-7.4c0.1-0.1 0.1-0.3 0.2-0.4l-0.1-0.1c0 0.2-0.1 0.4-0.1 0.5z m-44.7-49.2c-0.1 0.3-0.3 0.6-0.4 0.9 0.2-0.3 0.3-0.5 0.5-0.8l-0.1-0.1z m-18.3 14.9l7.2-15.3c-0.4-0.1-0.7-0.3-1.1-0.4-2 5.2-4.1 10.5-6.1 15.7z m5.1 34.1c-0.8 2.3-1.7 5.6-2.7 9.1 1-1.9 2.1-3.9 3.1-5.8 2.3-4.6 4.7-9.1 7.2-13.6 3.8-7.8 7.1-15.7 8.6-23.9-6.4 10.9-11.9 22.3-16.2 34.2z m133.1 90.1c0-0.1 0-0.2 0.1-0.3 0.2-0.7 0.4-1.4 0.7-2.1-2.1 0.2-4.3-0.6-5.2-2.3-1 1.2-2.5 1.7-4 1.5 2.8 1.1 5.6 2.2 8.4 3.2z m-12.6-5.4c-0.1 0.2-0.3 0.4-0.4 0.5 0.5 0.2 1 0.4 1.6 0.6-0.5-0.3-0.9-0.7-1.2-1.1z m-14.3-5.3l-0.2 0.2c0.1 0 0.2 0.1 0.4 0.1-0.1-0.1-0.1-0.2-0.2-0.3z m-59.3-27c0.3-2.8 0.6-5.7 1-8.5-0.4 0.1-0.9 0.1-1.3 0.1v2.1c0.1 1.8-1.2 3.7-2.8 4.6 1 0.6 2 1.2 3.1 1.7zM658 440.8c-0.1 0-0.1 0.1-0.2 0.1 0.1 0 0.1 0.1 0.2 0.1v-0.2z m-34.9-20.6c0.2-0.3 0.6-1.1 1.3-2.5 1.2-1.8 2-3.9 2.4-6 0.1-0.4 0.3-0.7 0.4-1.1-1.4 2.7-3.5 5.7-3.7 8.5-0.3 0.6-0.4 0.9-0.4 1.1-0.1 0-0.1 0 0 0z m-41.8-28.3c1.8-4.6 3.4-9.2 4.7-13.8-2.3 4-4.8 8-7.4 11.9 0.9 0.6 1.8 1.2 2.7 1.9zM401.7 286.8l3-5.1c-1.5 1.2-3.1 2.3-4.7 3.4l1.7 1.7z m-18.5-27.5l0.3-0.3c4.5-8.9 13.1-16.3 21.1-23.8 4.1-4.6 8.2-9.2 12.2-13.9-0.4-2.3-1.6-2.2-3.5 0.1-1.1 0.3-2.3 1-3.4 1.8-6.1 9.4-14.8 17.3-23.5 24.6-1.1 0.9-2.5 1.3-3.8 1.2 0.1 2.6 0.1 5.1 0.1 7.7 0.1 0.9 0.3 1.7 0.5 2.6z m-6.8-73.8c-0.1-0.3-0.1-0.7-0.2-1v1.3c0-0.1 0.1-0.2 0.2-0.3z m-2.9 7.1z m79.3 181.8c0.6 5.2 4.3 11.9 7.3 17.7v-0.1c-3-6.7-5.2-13.7-6.9-20.8-0.4 0.8-0.5 1.9-0.4 3.2z m1.6 66.2c0.2 0.5 0.4 1 0.5 1.5 0.3-0.4 0.5-0.8 0.8-1.2-0.5 0-0.9-0.1-1.3-0.3z m121.4 102.1c0-0.2 0-0.5 0.1-0.7-0.2 0.1-0.4 0.1-0.5 0.2-0.2 0.2-0.3 0.5-0.5 0.7 0.2 0 0.5-0.1 0.9-0.2z m-16-325.4c10.1 4.9 17.4 13.8 23.7 23.2 0.4-0.6 0.8-1.1 1.2-1.7-4.7-3.8-7.8-9-10.5-14.6-2.4-4.9-3-8.6-9-8.2-1.3 0.1-2.6 0.3-3.9 0.5-0.5 0.3-1 0.6-1.5 0.8z m38.1 6.6c-3.6-2.3-7.1-4.7-10.6-7.3 3.1 3.1 6.4 6.1 9.8 9 0.2-0.5 0.5-1.1 0.8-1.7zM524 243.7c0.3-0.4 0.7-0.8 1.1-1.1-0.3-0.4-0.7-0.7-1-1.1-0.1 0.7-0.1 1.4-0.1 2.2z m3.3 9.7c-1-1-2-2.1-3-3.1-0.3-0.3-0.5-0.5-0.6-0.8-0.1 1.1-0.1 2.3-0.2 3.4 1.1-0.3 2.5-0.2 3.8 0.5z m-2.5-23.5h0.3c-0.1-0.2-0.2-0.3-0.2-0.5-0.1 0.2-0.1 0.3-0.1 0.5z m87-15.7c-0.2-0.1-0.4-0.2-0.5-0.4 0.1 0.2 0.2 0.5 0.2 0.7l0.3-0.3z m-57 69.6c0.4 0.5 0.9 1 1.3 1.4 0.2-0.2 0.3-0.4 0.5-0.6-0.6-0.2-1.2-0.5-1.8-0.8z m-28.6-1c0 0.1-0.1 0.2-0.1 0.3 5.7 5 11.5 10 17 15.2 0.6 0.5 1.1 1.1 1.6 1.6 1.2-1.5 2.3-2.9 3.5-4.4-8.7-1.5-15.8-6.6-22-12.7z m-46.3 81c3.7 5.8 6.5 11.9 8.6 18.5 0.4-6.5-3.3-13.6-6.7-19.4-0.6 0.2-1.2 0.6-1.9 0.9z m55.6-58.9h-0.3 0.3z m-28 324.5c-0.1-0.7-0.1-1.4-0.2-2.2-0.2-1.7 0.4-3 1.4-3.8v-0.4c-0.1-0.4-0.2-0.8-0.2-1.2-0.4-0.2-0.9-0.4-1.3-0.7-0.5-0.3-1-0.7-1.3-1.2l-0.6 9.9c0.7-0.3 1.5-0.4 2.2-0.4z m12.1 38.4l-0.9 2.1c-0.3 0.7-0.7 1.2-1.3 1.6-0.1 0.3-0.2 0.6-0.4 1 1.1-1.4 2.1-2.9 3.1-4.4-0.1-0.1-0.3-0.2-0.5-0.3z m-1.3-253.7c-0.1 0.9-0.1 1.7-0.2 2.6 0.6-0.6 1.3-1.1 2-1.6-0.6-0.2-1.3-0.6-1.8-1z m-5.6 93c0.6-0.5 1.2-1 1.8-1.6l-0.1-0.1c-0.7-0.7-1.1-1.6-1.3-2.5h-0.1l-0.3 4.2z m8.3 24.1c0-0.1-0.1-0.2-0.1-0.4-0.4 0.1-0.7 0.2-1.1 0.2 0 0.2 0 0.3 0.1 0.5 0.3-0.1 0.7-0.2 1.1-0.3z m12.3-33.8c0.6-0.2 1.1-0.4 1.7-0.6-0.7 0.1-1.3 0.1-2 0.2 0.1 0.1 0.2 0.2 0.3 0.4z m44.7 23c0.4-0.4 0.8-0.9 1.1-1.3-1.4 0.4-2.7 0.7-4.1 1.1 1 0 2 0.1 3 0.2z m-40.4-73.8c-2.2 0.9-4.5 1.9-6.8 2.5-0.9 0.3-4 0.7-6.3 1.1-0.1 0.2-0.2 0.5-0.2 0.7 5.1 0 10.1-0.7 14.9-1.8-0.8-0.6-1.3-1.5-1.6-2.5z m-15.5 14.8c-0.1 0.6-0.1 1.2-0.2 1.8l9.6-2.4c-2.8 0.4-6.2 0.8-9.4 0.6z m1.9 11.8V476c11.1-2.1 31-5.8 36.6-13.6-12 4.3-24.2 7.9-36.6 10.8z m42.1-1.1c-10.2 8.8-30.1 11.6-41.9 14.2 0.4 0.2 0.8 0.3 1.3 0.5 4.6 1.4 12.9-1.8 17.2-3.1 8.4-2.4 16.5-5.4 24.3-9.3-0.3-0.7-0.6-1.5-0.9-2.3z m-51.8 48.5c-1.5-1.5-1.9-3.8-0.9-5.7-0.4-0.3-0.8-0.6-1.1-1-0.1 2.4-0.3 4.8-0.4 7.2 0.8-0.4 1.6-0.6 2.4-0.5z m-0.6-27.5l-0.1-0.1v0.2s0-0.1 0.1-0.1z m3.1-50.1h-0.2v0.5c0-0.2 0.1-0.3 0.2-0.5z m4.6-14.1c-0.2 0.5-0.4 1.1-0.6 1.7 1.8-0.7 3.8-1.5 5.9-2.3-1.7 0.3-3.5 0.5-5.3 0.6z m39.3 117c-7.3 1.6-14.6 2.8-21.9 3.8-0.5 0.1-0.9 0.2-1.4 0.3-5.2 1.1-13.7 3.8-19.4 1.7-0.7 0-1.4 0.1-2 0.1-0.7 0-1.4-0.1-2-0.3 0 0.5 0 1 0.1 1.5 0.8 4 18.7-1 21.1-1.5 8.4-1.6 16.8-3.4 25.1-5.2 0.1-0.2 0.2-0.3 0.4-0.4z m-90.2-130.7c0-6.3-7-16.8-9.7-21.6 0.7 1.3 1.3 2.6 1.8 3.8 2.7 5.9 5.3 11.8 7.9 17.8z m5.4-94.5c1.1-0.8 2-1.7 2.9-2.7-0.6-1-1.3-2-1.9-3-3.7 2.3-7.1 5-10.3 8 3.1 1.1 6.9-0.6 9.3-2.3z m48.4-4.7c-1.4-1.3-2.9-2.6-4.4-3.8v0.1c1.2 1.6 2.7 2.8 4.4 3.7z m-3.7-17.1c1.7 0.1 3.2 0.4 5.1 1.1 1.4 0.5 7.4 4.1 9.3 4.8-2.1-0.9-9-7.4-14-12.2-0.1 2.1-0.2 4.2-0.4 6.3z m5.5-31.4c3.1 3.7 6.4 7.6 10.2 10.8-4.5-5-9-10.1-13.5-15.1-0.1 0.9-0.1 1.8-0.2 2.7 1.2-0.1 2.5 0.4 3.5 1.6z m36.2-11.2c1.9 0.9 3.8 1.3 5.9 1.3-1.2-1.3-2.7-2.5-3.6-3.5-5.4-5.7-11-11.2-16.6-16.7-3-3-8.8-10.2-14.3-13.1 5.6 12.7 17.3 27.8 28.6 32z m20.8-74c0-0.4 0.1-0.7 0.2-1.1-0.2 0.3-0.4 0.6-0.5 0.9 0 0 0.1 0.1 0.3 0.2z m12.1-11.8c-0.1-0.3-0.2-0.6-0.3-1-0.2 0.2-0.4 0.4-0.7 0.6 0.4 0.1 0.7 0.2 1 0.4z m-48 189.6c0.1-0.5 0.2-1 0.4-1.5-0.2 0.5-0.4 0.9-0.6 1.4 0.1 0.1 0.2 0.1 0.2 0.1z m33.9-6.4c-2.4 5.5-4.8 10.9-7.3 16.4 2.9-4.3 7.6-11.1 7.3-16.4z m-17.6-3.8c-4.4 3.3-6.1 9.9-7.1 15.8 2.7-5.1 5.1-10.4 7.1-15.8z m-21.1 59.4c-1.5 0.5-3 0.9-4.5 1.4 1.9 0.1 3.7 0.5 5.6 1-0.4-0.8-0.7-1.6-1.1-2.4z m6.3 13.6c-0.1 0.1-0.3 0.1-0.4 0.2-0.1 0-0.2 0.1-0.3 0.1h0.9c-0.2-0.1-0.2-0.2-0.2-0.3z m7.6 16.6c-0.8 0.3-1.7 0.6-2.5 1h3c-0.2-0.4-0.4-0.7-0.5-1z m30.5 66.3c-0.4 0.3-0.9 0.6-1.5 0.8-1.1 0.3-2.1 0.7-3.2 1 1-0.2 1.9-0.4 2.9-0.6 0.9-0.2 1.7-0.1 2.5 0.1-0.3-0.4-0.5-0.9-0.7-1.3z m-18.7 73.3c0.1-0.2 0.2-0.5 0.2-0.7-0.3 0.1-0.5 0.2-0.8 0.3 0.2 0.1 0.4 0.3 0.6 0.4z m-15.8 24.5l1.8 0.3c1.5 0.3 2.5 1.1 3 2.1 0.4-0.9 0.7-1.7 1.1-2.6-1.9 0.1-3.9 0.1-5.9 0.2z m-41.8-1.4c-1.4-1.2-2.1-3.1-1.9-4.8h-0.2c-0.4 0-0.8-0.1-1.1-0.2-0.1 1.8-0.2 3.5-0.3 5.3 1.2-0.1 2.4-0.2 3.5-0.3z m-63.6-151.9c0-0.1-0.1-0.2-0.1-0.2 0.4 1 0.7 2 1 3 0.2-0.4 0.5-0.7 0.7-1.1-0.6-0.4-1.2-1-1.6-1.7z m-47.3-53.2c0.6 4.6 5.1 12.8 5.6 13.7 2.9 5.3 5.7 10.5 8.6 15.8 2.3 4.2 4.6 8.4 6.9 12.7-7-14.1-14-28.2-21.1-42.2z m-132.7 73.8c0.1-0.2 0.2-0.4 0.3-0.5-0.2 0.2-0.4 0.4-0.6 0.5h0.3z m74.7 4.6c-1.1-1.2-2.1-2.5-3-3.9 0.5 1.3 0.9 2.6 1.4 3.9 0.5 0.1 1 0.1 1.6 0z m-0.5-18.8h-0.2c1.1 2.2 2.3 4.4 3.6 6.4-1.2-2.1-2.3-4.2-3.4-6.4z m46.1 20.5l-0.2-0.2v0.1s0 0.1 0.1 0.1h0.1zM338 429c0.3 0.5 0.5 1 0.8 1.5 0.2 0.3 0.4 0.5 0.6 0.9 2.9 5.1 5.8 10.3 8.6 15.4 0.5 0.8 0.7 1.7 0.6 2.5 1.5 3.2 3.9 8.9 6.9 13.7-5.8-15.7-14.1-37.4-17.2-36.9-2.4-0.8-2.5 0.1-0.3 2.9z m60.7 45.6c-0.7 1.1-1.8 1.9-3 2.3-0.3 0.6-0.7 1-1.2 1.4 2.5 0.4 5 0.9 7.4 1.4-1-1.7-2.1-3.4-3.2-5.1z m-103-6.3l2.1 4.2c0.4 0.8 0.5 1.7 0.5 2.5 1.9 0.3 3.9 0.5 5.8 0.8-1.7-1.8-3.4-3.7-4.9-5.7-1.2-0.5-2.4-1.1-3.5-1.8zM418 484.6c0.2 0.1 0.5 0.2 0.7 0.3-0.1-0.6-0.1-1.3 0-1.9-4.8-9.8-9.7-19.6-14.7-29.4 4.7 10.4 9.3 20.7 14 31z m17.7-15.7c-0.3-0.6-0.6-1.2-0.9-1.7 0.4 1.2 0.7 2.4 1 3.6l0.6-0.9c-0.3-0.3-0.5-0.6-0.7-1z m-195.8-12.7c0.1-0.2 0.1-0.3 0.2-0.5-0.4 0.1-0.7 0.3-1.1 0.4 0.3 0.1 0.6 0.1 0.9 0.1z m70.3-26.5c0.7-0.1 1.3-0.1 2 0.1-0.3-1.1-0.7-2.1-1-3.2-0.7 0.3-1.4 0.6-2.2 0.9 0.4 0.7 0.8 1.4 1.2 2.2z m14.7-3.7h1.4c-0.3-1.9-0.4-3.8 0-5.7v-0.1l-5.1 2.1c1.3 1.2 2.5 2.5 3.7 3.7z m18.4-10.8c0.2-0.1 0.4-0.2 0.7-0.3 0.8-0.9 1.9-1.6 3.1-1.8-0.1-0.2-0.2-0.5-0.2-0.7-0.1-0.2-0.1-0.3-0.1-0.5l-3.6 1.5c-0.6 0.2-1.2 0.5-1.7 0.7 0.6 0.3 1.2 0.7 1.8 1.1z m19.1-8.5c-0.1-0.4-0.2-0.7-0.3-1.1-0.3 0.1-0.7 0.3-1 0.4 0.4 0.1 0.9 0.4 1.3 0.7z m61.7 64.1c-0.2-2.6-0.5-4.9-0.9-5.8-0.9-2.4-2.6-4.8-3.8-7-2.9-5.3-5.7-10.5-8.6-15.8-5.4-9.9-10.9-19.8-16.3-29.8-2.7-5-5.5-12.2-5.3-18.1-1.5 0.6-3 1.2-4.5 1.9 13.9 24.5 27 49.4 39.4 74.6z m-3.9-55.4c-6.3-13.1-12.2-24.7-13.6-27.7-0.1-0.2-0.1-0.3-0.2-0.5-0.1 0-0.2 0.1-0.3 0.1 4.7 9.4 9.4 18.7 14.1 28.1z m32.3-12.4c1.5 2.3 3.1 4.6 4.6 6.8-3.6-8.3-7.3-16.6-10.8-25-1.9-4.3-4-8.5-4.5-12.3l-5.1 2.1c0.4 10 10.5 20.5 15.8 28.4z m3-83.2c0.1-0.1 0.1-0.2 0.2-0.3 4.8-5.2 10.1-9.6 16-13.3-0.6-1-1.2-1.9-1.8-2.9-4.1 6.6-9.7 11.7-16.8 15.4 0.9 0.4 1.6 0.7 2.4 1.1z m-13.4-6.8c0.8-1.3 1.6-2.5 2.4-3.8-1.2 1.1-2.4 2.1-3.6 3.2l1.2 0.6z m-10.4-5.8c7.4-11 14.8-22.1 22.2-33.1-0.8-0.6-1.4-1.3-2-2.1-6.2 9.8-12.5 20.2-20.3 27.8-1.8 1.8-4 3-6.2 3.7 2.1 1.2 4.2 2.5 6.3 3.7zM409.1 197l0.1 0.1c-0.1-0.1-0.1-0.2-0.2-0.3 0 0.1 0.1 0.1 0.1 0.2z m18.3 31.3c-0.8 3.9-2.6 7.6-4.9 10.7-8 10.8-20.3 19.4-31.1 28-0.4 1.6-0.7 3.1-0.7 4.8 14.5-11.7 27.5-25 39-39.8-0.9-1.3-1.6-2.5-2.3-3.7z m157.8-50.4c-0.1 0.2-0.2 0.4-0.4 0.6 0.6-0.6 1.3-1 2-1.3 0.4-0.5 0.7-1 1.1-1.4v-0.4c-0.8 0.7-1.6 1.4-2.4 2-0.1 0.2-0.2 0.3-0.3 0.5z m96.5-101.3c-0.6 0.1-1.2 0.3-1.8 0.4l0.3 0.3c0.5-0.3 1-0.5 1.5-0.7zM553.6 344c-0.6 1.4-1.2 2.9-1.8 4.3 1.6-2.6 3.5-4.9 5.8-6.7-1.3-0.2-2.6-0.4-3.9-0.7 0.3 0.8 0.4 1.9-0.1 3.1z m36.4 4.1c0.2-0.4 0.4-0.9 0.6-1.3-0.4-0.1-0.8-0.1-1.2-0.2l0.6 1.5z m11.1 0c-0.1 3-0.4 5.9-0.7 8.8 1.5-2.8 3-5.5 4.4-8.3-1.2-0.2-2.5-0.3-3.7-0.5z m83.4 36.5h0.2c-0.1 0-0.1-0.1-0.2-0.1v0.1z m5.7 4.2c0 0.4 0 0.9-0.1 1.3 0.4-0.1 0.9-0.1 1.3 0 0.1-0.1 0.2-0.1 0.3-0.2-0.5-0.3-1-0.7-1.5-1.1z m42.5 34.1c-1.6 4.1-3.1 8.2-4.7 12.3-2.8 9.3-5.7 18.6-8.5 27.8 5.4-12.5 10.9-25.1 16.3-37.6-1.1-0.9-2.1-1.7-3.1-2.5z m-83 25.2c-1.2 0.7-2.7 1.2-4.5 1.5-4.1 0.8-8.3-3.5-5.8-7.5-6.2-3.6-12.3-7.3-18.3-11.1-3.7-0.6-5.9-2.2-6.9-4.4-27.5-17.6-54-37-79.2-57.9 3.4 7.4 6.8 14.7 10.1 22.1 1.7 1.2 2.7 3.4 2.5 5.3 11.4 24.7 22.7 49.5 34.1 74.2 0.1 0 0.1 0.1 0.2 0.1 1.1 0.9 1.5 2.2 1.5 3.5 3.1 6.8 6.3 13.7 9.4 20.5 0.3-1.5 0.7-2.9 1-4.4 0.4-2 2.8-4 4.9-3.8 57.2 6 114.5 11.9 171.7 17.9-41.8-15.3-82.2-34-120.7-56z m-76.6 117.2c-0.1 0-0.2 0.1-0.3 0.1-8.3 2-16.5 4.2-24.8 6.4 5.6-0.9 11.2-1.9 16.8-3 2.8-0.6 5 1.1 5.9 3.1l2.1-5.7c0-0.2 0.2-0.6 0.3-0.9zM213.7 463.4l-0.6-0.6c-0.5 0-0.9 0.1-1.4 0.1l0.6 0.3c0.5 0 0.9 0.1 1.4 0.2z m138.8-375.3l-5.1-4.2c1.2 5.7 2.3 11.3 3.5 17 0.3-4.3 0.8-8.5 1.6-12.8z m315.2-5.9c0.1-0.1 0.3-0.1 0.4-0.2 0.8-0.6 1.7-1.1 2.6-1.5v-0.2l-1.8 0.9c-0.4 0.3-0.8 0.7-1.2 1z m37.2 11c-2 16.4-10.8 31.1-21 44.7-7 9.4-14.1 18.6-21.3 27.9-11.1 16.6-22.4 33-33.9 49.4-27.1 38.6-55.1 76.4-83.9 113.6 26.4 5.1 53 9 79.8 11.8 1.9-1.7 4.9-1.1 6.7 0.7 5.2 0.5 10.4 1 15.7 1.4-9.1-26 1-58.6 7.3-83.9 9.3-38 23.3-73.9 39.3-109.5 6.5-15 16.9-38.4 11.3-56.1z m108.9 402.2c0 0.1 0 0.2-0.1 0.3 0.2 0.2 0.4 0.3 0.6 0.5-0.2-0.3-0.3-0.6-0.5-0.8z m-192.6 12.1c16.9-0.7 34.3 2.4 51.1 3.9 17.3 1.6 34.5 3.1 51.8 4.7 17.9 1.6 35.9 3.3 53.8 4.9 10.6 0.9 23.9 2.5 34.1-2.2-69.8-7.3-139.6-14.5-209.4-21.8-1.3 6-2.6 11.9-4.1 17.8 6-4.3 13.3-7 22.7-7.3zM499.7 708.7c3.5-5 7-10.1 10.3-15.2-4.3 3.1-9.1 5.9-14 7.7 1.3 2.4 2.5 4.9 3.7 7.5z m-64.6-174.4c3.9 16.7 7.2 33.6 10.8 50.4l10.8 50.7c3.2 15.1 4.2 34 11.7 47.6 3.3 6.1 7.8 9 12.8 9.7-9-20.7-16.7-41.9-22.8-63.6-9.3-32.5-13.7-65.2-18-98.7-1.6-12.7-5.9-22.1-14-28.9-0.7 1-1.5 2-2.2 3 5.4 9.1 8.5 19.5 10.9 29.8z m-78.6-195.5c11-6.7 21-14.9 23.4-27.4 1.4-7.2 0.4-14.4-0.9-21.6-3.7 16.4-10.4 32.1-20.9 46.8-0.5 0.8-1.1 1.5-1.6 2.2zM387.4 95c-5.8-3.1-11.8-5.3-18.2-6.6 18.8 14.7 38.5 28.3 58.3 41.9-11.6-13.9-24.3-26.7-40.1-35.3z m163.2 91.7c-6.5 6-13 12-19.4 18-0.4 0.4-0.8 0.7-1.1 1.1l3 0.6c8.1-5 28.7-22 46.1-36.7 4.8-7.5 9.4-14.8 14-20.1 5.4-6.3 11.2-12.2 17.1-17.9-6.4 5.9-12.7 11.8-19.1 17.7-13.7 12.4-27.1 24.9-40.6 37.3z m161.7-102c3.8 8.3 4.5 17.6 3.6 26.9 2.3-9.6 2.7-19.4-3.6-26.9zM693 175.5c-2.5 5.5-4.9 11.1-7.1 16.7-5.5 14-10.3 28.2-14.7 42.6 0.6-1.5 1.2-3 1.7-4.5 6.7-18.2 13.4-36.5 20.1-54.8zM781.1 448c-1-0.7-2-1.3-3.1-2 7.8 6.3 15.5 12.7 23 19.4 9.4 8.5 18.1 17.9 24.1 28.8-4.1-19-31.6-38.2-44-46.2z"  horiz-adv-x="1024" />

    
    <glyph glyph-name="wujiaoxing" unicode="&#59228;" d="M1013.923524 502.694072c-7.397466 22.839125-27.1237 39.451445-50.85003 42.904073L690.431499 585.232762 568.552904 832.229732c-10.63827 21.51497-32.548235 35.140265-56.543694 35.140264-24.008762 0-45.918727-13.625295-56.529368-35.140264L333.574641 585.232762 60.933669 545.598145c-23.728377-3.452628-43.468937-20.063925-50.865379-42.904073-7.426118-22.826846-1.224895-47.849702 15.934892-64.602214l197.245969-192.271688-46.53885-271.485661a62.939345 62.939345 0 0 1 25.064812-61.643843c11.004613-7.988936 23.982156-12.060663 37.042587-12.060662a62.8759 62.8759 0 0 1 29.35041 7.256249l243.840076 128.162706 243.826774-128.162706a62.830875 62.830875 0 0 1 29.35041-7.256249c13.061454 0 26.037974 4.071727 37.041564 12.060662 19.416173 14.104201 29.139609 37.987097 25.065835 61.643843l-46.553176 271.485661L997.986585 438.091858c17.17616 16.752512 23.375337 41.775369 15.936939 64.602214zM732.996858 267.827349L785.186393-36.332414 512.00921 107.258648 238.818723-36.332414l52.189535 304.159763L70.02061 483.23492l305.414334 44.383771L512.00921 804.345717 648.570172 527.618691l305.398985-44.383771-220.972299-215.407571zM625.702394 495.986313L512.00921 726.272727 398.331375 495.986313l-254.196938-36.94435 183.959387-179.252188-17.359331-101.138266c-0.521885-1.846041-0.859575-3.74734-0.859576-5.747899 0-11.666691 9.425655-21.107695 21.079042-21.107695 10.455099 0 19.04983 7.594963 20.741352 17.585482l0.098237-0.042979 21.417756 125.120422L234.479914 429.707927l191.749802 27.842059 85.779494 173.785698 85.766191-173.785698 68.519423-9.933213c0.366343-0.098237 0.80227-0.112563 1.198289-0.169869l1.296526-0.210801v0.070608c0.675381-0.084934 1.296526-0.197498 1.999536-0.197497 11.681017 0 21.122021 9.441004 21.122021 21.092345 0 10.8767-8.228389 19.711908-18.8114 20.881544l-47.397402 6.90321zM774.731295 431.864028l14.793908-2.141775-138.772323-135.263413L683.526242 103.4407l-171.517032 90.161283-207.474917-109.056594c-7.664548-3.15587-13.061454-10.693528-13.061455-19.500084 0-11.666691 9.425655-21.107695 21.106672-21.107695 3.550865 0 6.847951 0.973162 9.778694 2.494816l189.651006 99.701547 227.299388-119.484063-43.396282 253.140888 183.930735 179.252189-97.587401 14.202438c-1.50835 0.338714-3.057633 0.549514-4.66422 0.549514-11.638038 0-21.106671-9.439981-21.106672-21.106671 0-10.665899 7.94698-19.38752 18.246537-20.82424z"  horiz-adv-x="1024" />

    
    <glyph glyph-name="jifen" unicode="&#58974;" d="M431.569901 506.947537c104.681923 0 213.559308 23.023883 278.947137 66.922754l0-79.918457 60.578395 0L771.095433 668.933347c0 105.193565-174.879185 161.98581-339.423204 161.98581S92.146697 774.126911 92.146697 668.933347l0-477.566503c0-105.193565 174.879185-161.98581 339.423204-161.98581L431.569901 89.8571c-172.832617 0-278.947137 59.145798-278.947137 101.509743L152.622764 334.933547c65.387829-43.796542 174.162886-66.922754 278.947137-66.922754l0 60.578395c-172.832617 0-278.947137 59.145798-278.947137 101.509743L152.622764 573.767962C218.010593 529.97142 326.887978 506.947537 431.569901 506.947537zM431.569901 770.44309c172.832617 0 278.947137-59.145798 278.947137-101.509743s-106.11452-101.509743-278.947137-101.509743-278.947137 59.145798-278.947137 101.509743S258.839612 770.44309 431.569901 770.44309zM702.944739 473.793145c-150.320376 0-228.908564-57.815529-228.908564-114.91476L474.036175 51.995603c0-57.099231 78.690517-114.91476 228.908564-114.91476 149.194764 0 227.680624 56.996902 228.908564 113.686819l0.102328 0L931.955631 358.878385C931.853303 415.977616 853.265114 473.793145 702.944739 473.793145zM702.944739 413.317078c111.12861 0 168.432497-38.168482 168.432497-54.438693 0-16.270211-57.303887-54.438693-168.432497-54.438693S534.512241 342.608174 534.512241 358.878385C534.512241 375.148596 591.816129 413.317078 702.944739 413.317078zM702.944739-2.44309c-111.12861 0-168.432497 38.168482-168.432497 54.438693l0 73.267113c38.373139-20.874988 94.756071-34.791646 168.432497-34.791646s129.95703 13.916658 168.432497 34.791646L871.377236 51.995603C871.377236 35.725392 814.073349-2.44309 702.944739-2.44309zM702.944739 151.049465c-111.12861 0-168.432497 38.168482-168.432497 54.438693l0 73.267113c38.373139-20.874988 94.756071-34.791646 168.432497-34.791646s129.95703 13.916658 168.432497 34.791646l0-73.267113C871.377236 189.217947 814.073349 151.049465 702.944739 151.049465z"  horiz-adv-x="1024" />

    
    <glyph glyph-name="huangguan" unicode="&#59071;" d="M331.008 118.10133299999995l-43.264 187.904c-2.645333 11.434667 8.448 21.162667 19.456 17.152l42.410667-15.616c6.229333-2.304 13.226667-0.170667 17.066666 5.205334L496.64 493.226667c5.888 8.192 18.005333 8.192 23.893333 0l129.877334-180.48c3.84-5.376 10.837333-7.509333 17.066666-5.205334l42.410667 15.616c11.008 4.010667 22.101333-5.717333 19.456-17.152L686.08 118.10133299999995c-1.536-6.656-7.509333-11.434667-14.336-11.434666H345.429333c-6.912 0-12.885333 4.778667-14.421333 11.434666zM508.586667 734.4639999999999m-31.232 0a31.232 31.232 0 1 1 62.464 0 31.232 31.232 0 1 1-62.464 0ZM879.189333 524.8m-31.232 0a31.232 31.232 0 1 1 62.464 0 31.232 31.232 0 1 1-62.464 0ZM144.810667 524.8m-31.232 0a31.232 31.232 0 1 1 62.464 0 31.232 31.232 0 1 1-62.464 0ZM855.637333 468.992a34.141867 34.141867 0 0 1-34.389333 6.4l-125.866667-46.421333-159.061333 221.013333c-6.4 8.874667-16.725333 14.165333-27.733333 14.165333s-21.333333-5.290667-27.733334-14.165333l-159.061333-221.013333-125.866667 46.421333c-11.776 4.352-24.917333 1.877333-34.389333-6.4s-13.482667-21.077333-10.666667-33.28l93.610667-406.954667c3.584-15.530667 17.322667-26.453333 33.28-26.453333h461.653333a34.218667 34.218667 0 0 1 33.28 26.453333l93.610667 406.954667c2.816 12.202667-1.28 25.002667-10.666667 33.28zM745.898667 216.746667h-58.282667l25.429333 146.005333 72.618667 26.794667-39.765333-172.8zM508.586667 571.648l138.154666-192-28.416-162.986667H401.152l-30.549333 163.157334L508.586667 571.648zM304.384 362.66666699999996l27.306667-145.92h-60.416l-39.765334 172.8 72.874667-26.88z m0.512-292.096l-17.92 77.909333H730.112l-17.92-77.909333H304.896z"  horiz-adv-x="1024" />

    
    <glyph glyph-name="V" unicode="&#59186;" d="M525.486829 606.982244c13.886439 5.394732 23.576976 18.781659 23.576976 34.566244 0 20.48-16.683707 36.963902-37.063805 37.063805-20.48 0-36.963902-16.683707-36.963902-37.063805 0-15.684683 9.790439-29.171512 23.676878-34.566244l13.386926 33.966829 13.386927-33.966829zM126.476488 417.966829c7.39278 6.793366 11.988293 16.483902 11.988292 27.273366 0 20.48-16.583805 36.963902-37.063804 36.963903s-36.963902-16.583805-36.963903-36.963903c0-20.48 16.583805-36.963902 36.963903-36.963902 5.994146 0 11.688585 1.398634 16.683707 3.896195l-6.193951 14.585756 14.585756-8.791415zM232.273171 133.34478h559.553561v-43.957073H232.273171zM732.085073 318.663805l-1.798244 180.823415c-2.797268 0.299707-5.594537 0.999024-8.192 1.898146l-101.900488-135.367805L525.486829 606.982244c-4.096-1.598439-8.59161-2.497561-13.386927-2.497561-4.695415 0-9.191024 0.899122-13.386926 2.497561l-94.707513-240.964683-101.900487 135.367805c-2.597463-0.899122-5.294829-1.598439-8.192-1.898146l-1.798244-180.823415-165.738147 99.303024c-2.497561-2.297756-5.294829-4.195902-8.391805-5.794341l115.08761-268.337951h557.655415l115.08761 268.437853c-2.997073 1.498537-5.794341 3.496585-8.291903 5.794342l-165.438439-99.402927z m-148.754732-30.869854l-21.578926-19.780683c-5.794341-5.294829-9.390829-16.184195-7.692488-23.876683l5.794341-28.771902c1.498537-7.692488-2.697366-10.889366-9.690536-6.993171l-25.475122 14.385951c-6.893268 3.896195-18.182244 3.896195-25.175415 0l-25.475122-14.485853c-6.893268-3.896195-11.288976-0.699317-9.690536 6.99317l5.794341 28.771903c1.498537 7.79239-1.898146 18.481951-7.692488 23.876683l-21.578927 19.780683c-5.794341 5.294829-4.195902 10.489756 3.696391 11.388878l29.071609 3.29678c7.79239 0.999024 17.083317 7.592585 20.280196 14.685659l12.088195 26.673951c3.29678 7.192976 8.691512 7.192976 11.988292 0l12.088195-26.673951c3.29678-7.192976 12.487805-13.886439 20.280196-14.685659l29.071609-3.29678c8.092098-0.899122 9.690537-5.994146 3.896195-11.288976zM730.286829 499.48722c1.398634-0.199805 2.897171-0.299707 4.395708-0.299708 20.579902 0 37.063805 16.583805 37.063804 37.063805s-16.683707 36.963902-37.063804 36.963903-36.963902-16.583805-36.963903-36.963903c0-15.98439 10.190049-29.671024 24.476098-34.865951l7.992195 10.689561 0.099902-12.587707zM302.104976 501.385366c14.186146 5.194927 24.376195 18.781659 24.376195 34.865951 0 20.48-16.583805 36.963902-36.963903 36.963903-20.579902 0-37.063805-16.583805-37.063805-36.963903s16.483902-36.963902 37.063805-37.063805c1.498537 0 2.997073 0.099902 4.49561 0.299708l0.099902 12.587707 7.992196-10.689561zM922.698927 482.204098c-20.48 0-36.963902-16.583805-36.963903-36.963903 0-10.789463 4.595512-20.48 11.888391-27.173463l14.485853 8.691512-6.193951-14.485854c4.995122-2.597463 10.689561-3.996098 16.78361-3.996097 20.48 0 36.963902 16.483902 36.963902 36.963902s-16.583805 36.963902-36.963902 36.963903z"  horiz-adv-x="1024" />

    
    <glyph glyph-name="iconfontjiantou5" unicode="&#58933;" d="M723.696401 362.897256c0.486519 0.973037 1.337926 1.824445 1.702815 2.797482 8.514075 17.757928 5.716593 39.651265-9.365483 53.881934L372.30835 744.692719c-18.730966 17.757928-48.28697 16.906521-66.044898-1.824445-17.757928-18.730966-16.906521-48.28697 1.824445-66.044898l308.452785-291.789524L309.304193 88.987291c-18.609336-17.879558-19.095855-47.435562-1.216296-66.044898 9.122224-9.487112 21.406818-14.352298 33.569783-14.352298 11.676446 0 23.352892 4.378667 32.353486 13.136002l340.563012 328.278418c0.608148 0.608148 0.851408 1.581185 1.581185 2.189334 0.486519 0.486519 0.973037 0.851408 1.581185 1.337926C720.53403 356.329255 721.871956 359.734885 723.696401 362.897256L723.696401 362.897256zM723.696401 362.897256"  horiz-adv-x="1024" />

    
    <glyph glyph-name="youjiantou" unicode="&#58909;" d="M348.9 28c-7.8 0-15.7 3-21.7 9-12 12-12 31.4 0 43.4l305.5 305.5-305.5 305.5c-12 12-12 31.4 0 43.4s31.4 12 43.4 0l327.2-327.2c12-12 12-31.4 0-43.4L370.6 37c-6-6-13.9-9-21.7-9z"  horiz-adv-x="1024" />

    
    <glyph glyph-name="icon" unicode="&#58908;" d="M511.487835 747.611527c246.665913 0 447.354678-200.660112 447.354678-447.355701 0-246.694565-200.688765-447.354678-447.354678-447.354678-246.695588 0-447.355701 200.660112-447.355701 447.354678C64.132134 546.951415 264.792247 747.611527 511.487835 747.611527L511.487835 747.611527 511.487835 747.611527zM236.695329-13.581951c-0.217964 14.062274 8.16496 27.439956 22.062482 32.929993 22.635533 8.92937 78.691223 35.112706 148.290371 47.51006L407.048181 81.683762C337.450057 149.999684 296.383756 278.00301 296.383756 374.715679c0 138.022517 71.920006 217.179344 197.547215 217.179344 128.959094 0 209.233372-81.20344 209.233372-217.179344 0-46.718021-17.637706-200.087061-87.265506-284.374746l0-18.621103c34.814923-8.600889 106.926288-27.197432 154.271596-43.960211 16.384156-5.817496 23.290449-22.581298 20.231787-39.101553 85.980233 76.53614 139.66083 187.69073 139.66083 311.598784 0 230.340085-187.852412 417.757592-418.138262 417.757592-230.367715 0-417.97658-187.417507-417.97658-417.757592C93.948207 175.17404 149.266094 63.06266 236.695329-13.581951L236.695329-13.581951 236.695329-13.581951zM236.695329-13.581951"  horiz-adv-x="1024" />

    
    <glyph glyph-name="fanhui" unicode="&#58899;" d="M702.94996-62.89419c-8.375761 0-16.751522 3.196809-23.14514 9.590426L265.159102 361.341954c-12.787234 12.777001-12.787234 33.513278 0 46.289256L679.80482 822.277952c12.787234 12.787234 33.502022 12.787234 46.289256 0 12.787234-12.777001 12.787234-33.513278 0-46.289256L334.593498 384.487094l391.501602-391.501602c12.787234-12.777001 12.787234-33.513278 0-46.289256C719.701482-59.697381 711.325721-62.89419 702.94996-62.89419z"  horiz-adv-x="1024" />

    
    <glyph glyph-name="fanhui1" unicode="&#58964;" d="M768 735.146667L691.2 810.666667l-358.826667-353.706667L256 381.866667l76.8-75.946667L686.933333-42.666667l75.946667 75.093334-353.706667 348.586666z"  horiz-adv-x="1024" />

    
    <glyph glyph-name="fanhui-xianxing" unicode="&#58945;" d="M711.51-31.639999999999986c-8.19 0-16.38 3.12-22.63 9.37L289.86 376.75c-12.5 12.5-12.5 32.76 0 45.26L688.88 821.02c12.5 12.5 32.76 12.5 45.26 0s12.5-32.76 0-45.25L357.75 399.38l376.39-376.39c12.5-12.5 12.5-32.76 0-45.25-6.25-6.26-14.44-9.38-22.63-9.38z"  horiz-adv-x="1024" />

    
    <glyph glyph-name="weixin1" unicode="&#58935;" d="M1010.8 268c0 141.2-141.3 256.2-299.9 256.2-168 0-300.3-115.1-300.3-256.2 0-141.4 132.3-256.2 300.3-256.2 35.2 0 70.7 8.9 106 17.7l96.8-53-26.6 88.2c70.9 53.2 123.7 123.7 123.7 203.3zM618 307.2c-22.1 0-40 17.9-40 40s17.9 40 40 40 40-17.9 40-40c0-22-17.9-40-40-40z m194.3 0.3c-22.1 0-40 17.9-40 40s17.9 40 40 40 40-17.9 40-40-17.9-40-40-40zM366.3 789.1c-194.1 0-353.1-132.3-353.1-300.3 0-97 52.9-176.6 141.3-238.4l-35.3-106.2 123.4 61.9c44.2-8.7 79.6-17.7 123.7-17.7 11.1 0 22.1 0.5 33 1.4-6.9 23.6-10.9 48.3-10.9 74 0 154.3 132.5 279.5 300.2 279.5 11.5 0 22.8-0.8 34-2.1C692 683.4 539.9 789.1 366.3 789.1zM247.7 546.8c-26.5 0-48 21.5-48 48s21.5 48 48 48 48-21.5 48-48-21.5-48-48-48z m246.6 0c-26.5 0-48 21.5-48 48s21.5 48 48 48 48-21.5 48-48-21.5-48-48-48z"  horiz-adv-x="1024" />

    
    <glyph glyph-name="QQ" unicode="&#59510;" d="M666.122449-13.061224c-10.44898 0-21.420408 1.044898-31.869388 2.612244-39.183673 4.702041-74.710204 23.510204-100.832653 53.289796-13.583673-5.22449-28.212245-5.22449-41.795918 0-21.420408-28.212245-61.64898-48.065306-108.669388-53.289796-66.35102-7.314286-138.44898 11.493878-144.718367 55.379592-5.22449 34.481633 37.093878 61.126531 81.502041 75.755102-25.6 28.212245-43.363265 63.738776-51.2 101.355102l-0.522449-0.522449c-25.077551-31.346939-41.795918-50.155102-61.126531-50.155102-2.089796 0-4.179592 0.522449-6.269388 1.044898-7.314286 2.612245-13.061224 8.881633-17.240816 18.808164-16.195918 34.481633-9.404082 100.310204 15.15102 150.465306 0 0 0 0.522449 0.522449 0.522449 12.538776 22.465306 27.689796 43.363265 45.453061 62.171428-6.269388 11.493878-10.44898 24.032653-12.016326 37.093878v3.134694c0.522449 19.330612 10.44898 37.093878 26.644898 47.542857-10.971429 73.142857 9.926531 147.330612 58.514286 203.232653 49.110204 56.946939 120.163265 88.816327 194.873469 86.204081h4.702041c65.306122 0 129.567347-26.122449 177.110204-72.097959 49.110204-47.542857 76.8-112.326531 77.844898-180.767347v-7.314285c0.522449-9.926531 0-19.330612-1.044898-29.257143 14.106122-8.881633 21.420408-20.37551 21.420408-48.065306 0-13.583673-1.044898-27.689796-9.926531-36.04898 13.061224-17.763265 28.734694-42.840816 41.27347-62.693877l2.612245-4.179592c20.37551-32.391837 23.510204-74.187755 22.987755-96.130613 0-17.240816-2.089796-58.514286-18.285714-70.530612-3.657143-2.612245-7.314286-3.657143-12.016327-3.657143h-4.179592c-26.122449 0-41.273469 23.510204-57.991837 48.587755l-1.567347 2.089796c-8.881633-36.571429-26.122449-71.053061-50.677551-99.265306 27.167347-9.404082 83.069388-31.346939 75.755103-73.142857-5.746939-35.526531-55.902041-62.171429-114.416327-62.171428z m-388.702041 63.738775z m250.253061 11.493878z m276.375511 140.016326z m-47.020409 235.102041z"  horiz-adv-x="1024" />

    
    <glyph glyph-name="weibo" unicode="&#58983;" d="M851.4 305.807c-22.196 66.233-90.385 90.422-105.912 91.863-15.523 1.442-29.593 9.94-19.295 27.505 10.302 17.566 29.304 68.684-7.248 104.681-36.564 36.14-116.512 22.462-173.094-0.866-56.434-23.327-53.39-7.055-51.65 8.925 1.89 16.848 32.355 111.02-60.791 122.395C311.395 675.14 154.85 525.246 99.572 438.85 16 308.393 29.208 220.127 29.208 220.127h0.58c10.009-121.819 190.787-218.869 412.328-218.869 190.5 0 350.961 71.853 398.402 169.478 0 0 0.143 0.433 0.575 1.156 4.938 10.506 8.71 21.168 11.035 32.254 6.668 26.205 11.755 64.215-0.728 101.66z m-436.7-251.27c-157.71 0-285.674 84.095-285.674 187.768 0 103.671 127.82 187.76 285.674 187.76 157.705 0 285.673-84.089 285.673-187.76 0-103.815-127.968-187.768-285.673-187.768zM803.096 470.673c2.896-1.298 5.945-1.869 8.994-1.869 8.993 0 17.7 5.328 21.323 14.112 5.95 13.964 8.993 28.793 8.993 44.205 0 62.488-51.208 113.321-114.181 113.321-15.379 0-30.32-3.022-44.396-8.926-11.755-4.896-17.263-18.432-12.335-30.24 4.933-11.662 18.572-17.134 30.465-12.238 8.419 3.46 17.268 5.33 26.41 5.33 37.431 0 67.752-30.241 67.752-67.247 0-9.068-1.735-17.857-5.369-26.202a22.832 22.832 0 0 1 12.335-30.236l0.01-0.01zM726.922 781.843c-25.969 0-51.65-3.744-76.315-10.942-18.423-5.472-28.868-24.622-23.5-42.91 5.509-18.29 24.804-28.657 43.237-23.329a201.888 201.888 0 0 0 56.578 8.064c109.253 0 198.189-88.271 198.189-196.696 0-19.436-2.905-38.729-8.419-57.16-5.508-18.289 4.79-37.588 23.212-43.053 3.342-1.014 6.817-1.442 10.159-1.442 14.943 0 28.725 9.648 33.37 24.48 7.547 24.906 11.462 50.826 11.462 77.175-0.143 146.588-120.278 265.813-267.973 265.813zM388.294 361.53c-84.151 0-152.34-59.178-152.34-132.334 0-73.141 68.189-132.328 152.34-132.328 84.148 0 152.337 59.182 152.337 132.328 0 73.15-68.19 132.334-152.337 132.334zM338.53 143.237c-29.454 0-53.39 23.755-53.39 52.987 0 29.228 23.941 52.989 53.39 52.989 29.453 0 53.39-23.76 53.39-52.989 0-29.227-23.937-52.987-53.39-52.987z m99.82 95.465c-6.382-11.086-19.296-15.696-28.726-10.219-9.43 5.323-11.75 18.717-5.37 29.803 6.386 11.09 19.297 15.7 28.725 10.224 9.43-5.472 11.755-18.864 5.37-29.808z"  horiz-adv-x="1024" />

    
    <glyph glyph-name="weixin" unicode="&#58907;" d="M512 894.104C229.452 894.104 0 666.548 0 384s229.452-510.104 512-510.104S1022.104 101.452 1022.104 384 794.548 894.104 512 894.104z m-91.022-629.57c-26.548 0-49.304 5.688-75.852 11.377l-75.852-37.926 22.756 66.37c-54.993 37.926-87.23 87.23-87.23 147.912 0 104.296 98.607 185.837 218.074 185.837 108.089 0 201.007-64.474 219.97-153.6-7.585 0-13.274 1.896-20.859 1.896-104.296 0-185.837-77.748-185.837-172.563 0-15.17 1.896-30.34 7.585-45.511-7.585-3.793-15.17-3.793-22.755-3.793z m322.37-77.749l17.067-54.992-58.785 34.133c-22.756-5.689-43.615-11.378-66.37-11.378-104.297 0-185.838 70.163-185.838 157.393S530.963 471.23 635.26 471.23c98.608 0 185.837-70.163 185.837-159.29 0-47.407-32.237-91.021-77.748-125.155zM318.578 516.74c0-17.066 13.274-30.34 30.34-30.34s30.341 13.274 30.341 30.34-13.274 30.341-30.34 30.341-30.341-13.274-30.341-30.34z m235.14-159.288c0-13.274 11.378-24.652 24.652-24.652 13.274 0 24.652 11.378 24.652 24.652 0 13.274-11.378 24.652-24.652 24.652-13.274 1.896-24.651-9.482-24.651-24.652z m-81.54 159.289c0-17.067 13.274-30.341 30.34-30.341 17.067 0 30.341 13.274 30.341 30.34 0 17.067-13.274 30.341-30.34 30.341-17.067 0-30.341-13.274-30.341-30.34zM675.08 357.45c0-13.273 11.378-24.651 24.652-24.651 13.274 0 24.652 11.378 24.652 24.652 0 13.274-11.378 24.652-24.652 24.652-13.274 1.896-24.652-9.482-24.652-24.652z"  horiz-adv-x="1024" />

    
    <glyph glyph-name="faxian" unicode="&#59093;" d="M512-128c282.752 0 512 229.248 512 512S794.752 896 512 896 0 666.752 0 384s229.248-512 512-512z m0 85.333333C276.352-42.666667 85.333333 148.352 85.333333 384S276.352 810.666667 512 810.666667s426.666667-191.018667 426.666667-426.666667-191.018667-426.666667-426.666667-426.666667zM783.530667 655.530667l-173.866667-347.733334a48 48 0 0 0-21.461333-21.461333l-347.733334-173.866667 173.866667 347.733334c4.650667 9.301333 12.16 16.810667 21.461333 21.461333l347.733334 173.866667zM490.666667 832v-42.666667a21.333333 21.333333 0 1 1 42.666666 0v42.666667a21.333333 21.333333 0 1 1-42.666666 0zM490.666667-21.333333v-42.666667a21.333333 21.333333 0 1 1 42.666666 0v42.666667a21.333333 21.333333 0 0 1-42.666666 0zM106.282667 405.717333l-42.666667-0.768a21.333333 21.333333 0 1 1 0.768-42.666666l42.666667 0.768a21.333333 21.333333 0 0 1-0.768 42.666666zM959.616 405.717333l-42.666667-0.768a21.333333 21.333333 0 1 1 0.768-42.666666l42.666667 0.768a21.333333 21.333333 0 0 1-0.768 42.666666zM512 384m-85.333333 0a85.333333 85.333333 0 1 1 170.666666 0 85.333333 85.333333 0 1 1-170.666666 0ZM512 384m-42.666667 0a42.666667 42.666667 0 1 1 85.333334 0 42.666667 42.666667 0 1 1-85.333334 0Z"  horiz-adv-x="1024" />

    
    <glyph glyph-name="duoxuan" unicode="&#59120;" d="M768 448H576V640H448v-192H256v-128h192v-192h128V320h192z"  horiz-adv-x="1024" />

    
    <glyph glyph-name="duoxuanzu" unicode="&#58938;" d="M939.52 616.32H84.48A73.6 73.6 0 0 0 11.52 689.92V768A72.96 72.96 0 0 0 84.48 841.6h855.04A72.96 72.96 0 0 0 1012.48 768v-78.08a73.6 73.6 0 0 0-72.96-73.6zM84.48 775.04a6.4 6.4 0 0 1-6.4-6.4v-78.72a5.76 5.76 0 0 1 6.4-6.4h855.04a5.76 5.76 0 0 1 6.4 6.4V768a6.4 6.4 0 0 1-6.4 6.4zM939.52 268.16H84.48A72.96 72.96 0 0 0 11.52 341.12V419.84A72.96 72.96 0 0 0 84.48 492.8h855.04a72.96 72.96 0 0 0 72.96-72.96v-78.72a72.96 72.96 0 0 0-72.96-72.96zM84.48 426.24a6.4 6.4 0 0 1-6.4-6.4v-78.72a5.76 5.76 0 0 1 6.4-6.4h855.04a5.76 5.76 0 0 1 6.4 6.4V419.84a6.4 6.4 0 0 1-6.4 6.4zM939.52-80.64H84.48a72.96 72.96 0 0 0-72.96 72.96v78.72a73.6 73.6 0 0 0 72.96 73.6h855.04a73.6 73.6 0 0 0 72.96-73.6v-78.72a72.96 72.96 0 0 0-72.96-72.96zM84.48 77.44a5.76 5.76 0 0 1-6.4-6.4v-78.72a6.4 6.4 0 0 1 6.4-6.4h855.04a6.4 6.4 0 0 1 6.4 6.4v78.72a5.76 5.76 0 0 1-6.4 6.4z"  horiz-adv-x="1024" />

    
    <glyph glyph-name="saoyisao" unicode="&#58953;" d="M128 480a32 32 0 0 1 32 32V736h224a32 32 0 0 1 0 64H160a64.07 64.07 0 0 1-64-64v-224a32 32 0 0 1 32-32z m256-448H160V256a32 32 0 0 1-64 0v-224a64.07 64.07 0 0 1 64-64h224a32 32 0 0 1 0 64z m512 256a32 32 0 0 1-32-32v-224H640a32 32 0 0 1 0-64h224a64.07 64.07 0 0 1 64 64V256a32 32 0 0 1-32 32zM864 800H640a32 32 0 0 1 0-64h224v-224a32 32 0 0 1 64 0V736a64.07 64.07 0 0 1-64 64z m32-384H128a32 32 0 0 1 0-64h768a32 32 0 0 1 0 64z"  horiz-adv-x="1024" />

    
    <glyph glyph-name="wode" unicode="&#58924;" d="M513.1 300.6c165.5 0 299.6 133.1 299.6 297.3 0 164.2-134.2 297.3-299.6 297.3S213.5 762.1 213.5 597.9C213.5 433.7 347.6 300.6 513.1 300.6zM513.1 846.2c137.5 0 249.3-111.4 249.3-248.3 0-136.9-111.9-248.3-249.3-248.3S263.7 461 263.7 597.9C263.7 734.8 375.6 846.2 513.1 846.2zM513.1 278.6c-219.3 0-397.7-181.9-397.7-405.2l51.1-0.2c0 193.9 155.5 352.1 346.6 352.1S859.7 79 859.7-126l51.1 0C910.8 105 732.4 278.6 513.1 278.6zM633.6 451.7l-15.2 20c-63.7-46.2-154.6-46.4-218.5-0.5l-15.2-20.1c36.3-26.1 79.2-39.8 124.1-39.8C554.1 411.3 597.2 425.2 633.6 451.7z"  horiz-adv-x="1024" />

    
    <glyph glyph-name="fangzi" unicode="&#58941;" d="M817.787727 441.61663l-291.665001 247.045373c-19.853688 16.78353-48.917849 17.192884-69.180891 0.818709L165.788527 454.204277c-9.722167-7.777733-11.154907-22.002798-3.377174-31.622626 7.777733-9.722167 22.002798-11.154907 31.622626-3.377174L485.289626 654.480911c3.479512 2.763142 8.391765 2.763142 11.768939-0.102339l291.665001-247.045373c4.195882-3.581851 9.415151-5.321607 14.532081-5.321607 6.344993 0 12.689986 2.660804 17.192884 7.982411C828.430941 419.306816 827.202878 433.531881 817.787727 441.61663zM730.697581 383.28363c-12.485309 0-22.514491-10.029182-22.514491-22.514491l0-220.027983c0-5.11693-4.093544-9.210474-9.210474-9.210474l-93.128123 0c-5.11693 0-9.210474 4.093544-9.210474 9.210474L596.63402 292.202279c0 29.88287-24.356586 54.239456-54.239456 54.239456L430.845493 346.441735c-29.88287 0-54.239456-24.356586-54.239456-54.239456l0-151.461123c0-5.11693-4.093544-9.210474-9.210474-9.210474l-96.198281 0c-5.11693 0-9.210474 4.093544-9.210474 9.210474L261.986808 360.769139c0 12.485309-10.029182 22.514491-22.514491 22.514491s-22.514491-10.029182-22.514491-22.514491l0-220.027983c0-29.88287 24.356586-54.239456 54.239456-54.239456l96.198281 0c29.88287 0 54.239456 24.356586 54.239456 54.239456L421.635019 292.202279c0 5.11693 4.093544 9.210474 9.210474 9.210474l111.549071 0c5.11693 0 9.210474-4.093544 9.210474-9.210474l0-151.461123c0-29.88287 24.356586-54.239456 54.239456-54.239456l93.128123 0c29.88287 0 54.239456 24.356586 54.239456 54.239456L753.212073 360.769139C753.212073 373.254447 743.18289 383.28363 730.697581 383.28363z"  horiz-adv-x="1024" />

    
    <glyph glyph-name="tv" unicode="&#59027;" d="M656.1 594.5l200 200-35.4 35.4-235.3-235.4h-146.8l-235.4 235.3-35.4-35.4 200-200h-305.6v-656.3h899.6v656.4h-305.7zM112.2-11.8v556.3h799.6v-327.6h-61.3v-50h61.3v-51.9h-61.3v-50h61.3v-76.9h-799.6z"  horiz-adv-x="1024" />

    
    <glyph glyph-name="fangzi1" unicode="&#59647;" d="M640 0h192V426.624h42.666667V-0.213333c0-23.466667-19.029333-42.474667-42.666667-42.474667H597.333333V170.666667h-170.666666v-213.333334H192c-23.573333 0-42.666667 18.986667-42.666667 42.453334V426.645333h42.666667V0h192V213.333333h256v-213.333333zM100.032 389.866667a21.333333 21.333333 0 1 0-29.397333 30.933333L466.282667 796.650667a66.688 66.688 0 0 0 91.434666 0L953.386667 420.8a21.333333 21.333333 0 1 0-29.397334-30.933333L528.341333 765.717333a24.021333 24.021333 0 0 1-32.682666 0L100.053333 389.866667zM832 704h-128a21.333333 21.333333 0 0 0 0 42.666667h149.333333a21.333333 21.333333 0 0 0 21.333334-21.333334v-149.333333a21.333333 21.333333 0 0 0-42.666667 0V704z"  horiz-adv-x="1024" />

    
    <glyph glyph-name="aixin" unicode="&#58906;" d="M797.97369512 681.15566787c-19.0870552 0-37.66071016-3.63372802-55.60687712-10.92970655-17.98039396-7.30168303-34.02698212-18.0260292-48.16828769-32.23008348L590.37772952 533.86703721l-103.82080078 104.12884063c-14.15841904 14.20405428-30.19359893 24.92840118-48.18540115 32.23008348a146.33028487 146.33028487 0 0 1-55.60687787 10.92970655c-26.76523057 0-51.3798874-6.56010588-73.82685701-19.72024765-22.47549209-13.13732453-40.23341219-30.97510683-53.35362395-53.50764387-13.10880204-22.54394531-19.65749893-47.22135087-19.65749892-74.06073914a148.31542969 148.31542969 0 0 1 10.88977581-55.81794131c7.28456954-18.0260292 18.00321123-34.11254883 32.14451678-48.31089932l311.41676709-312.39793018 311.39394913 312.39793018c14.12989657 14.20405428 24.83712997 30.28487014 32.09888154 48.31089932a147.66512374 147.66512374 0 0 1 10.92400206 55.81794131c0 26.83938828-6.57151414 51.51679384-19.66890792 74.06073914-13.08598478 22.53253632-30.86672286 40.37031936-53.36503293 53.50764387-22.43556063 13.16584627-47.0274002 19.72024765-73.81544803 19.72024765h0.02281726z m1e-8 73.63290635c39.9595993 0 76.8102791-9.89720304 110.57485733-29.64026796 33.74176026-19.77729188 60.4328331-46.55393144 80.10744551-80.39266739 19.68031691-33.83303145 29.520475-70.79209519 29.55470198-110.88860166 0-28.77889786-5.52760164-56.72494736-16.48583069-83.84955751-11.01527254-27.09608841-27.01052168-51.22586748-48.0599037-72.34370344L590.38343402 13.211425780000013l-363.3157585 364.46235048C206.05251975 398.76308975 190.04015784 422.90427782 179.03058978 450.0174797 168.0609525 477.17061232 162.54475911 505.10525284 162.54475911 533.8727417c0 40.067984 9.84015809 77.02704774 29.55470126 110.88289717C211.77407279 678.63430557 238.48796361 705.40524063 272.20690589 725.14830626 305.97148411 744.89137118 342.78793693 754.76575624 382.77035422 754.78857422c28.86446455 0 56.71353837-5.4762619 83.57004013-16.41737746 26.83938828-10.91829757 50.90641935-27.03904343 72.09270782-48.3337166l51.90469589-52.04160232 51.89899141 52.04160233c21.03797303 21.11783525 45.06507264 37.16442412 72.12693478 48.19110566C741.3913587 749.25526809 769.25184223 754.78857422 797.92805989 754.78857422h0.04563523z"  horiz-adv-x="1181" />

    
    <glyph glyph-name="wode1" unicode="&#59176;" d="M506.9 364.5c-101 0-183.2 82.2-183.2 183.2 0 101 82.2 183.2 183.2 183.2s183.2-82.2 183.2-183.2c0-101-82.2-183.2-183.2-183.2z m0 316.5c-73.5 0-133.2-59.8-133.2-133.2s59.8-133.2 133.2-133.2 133.2 59.8 133.2 133.2S580.3 681 506.9 681zM762.9 33.4H261.8c-25.9 0-50.1 11.6-66.4 31.8-16.3 20.2-22.5 46.3-16.9 71.7 16.8 77.2 58.8 147.4 118.4 197.5 29.8 25.1 63.2 44.7 99.1 58.1 37.3 14 76.4 21.1 116.4 21.1s79.1-7.1 116.4-21.1c36-13.5 69.3-33 99.1-58.1 59.6-50.1 101.6-120.3 118.4-197.5 5.5-25.4-0.7-51.5-16.9-71.7-16.4-20.2-40.6-31.8-66.5-31.8zM512.4 363.6c-137.5 0-254.7-97.6-285.1-237.3-2.3-10.5 0.3-21.3 7-29.7 6.7-8.4 16.8-13.2 27.5-13.2h501.1c10.7 0 20.8 4.8 27.5 13.2 6.7 8.4 9.3 19.2 7 29.7C767 266 649.8 363.6 512.4 363.6z"  horiz-adv-x="1024" />

    
    <glyph glyph-name="xinxi" unicode="&#58882;" d="M130.719335-128a32.56415 32.56415 0 0 0-21.804037 8.440272 33.761089 33.761089 0 0 0-6.465939 42.090306c45.434332 77.73935 70.816846 130.034488 78.220594 152.406146C65.640393 163.781695 0.030849 292.372453 0.030849 430.143857 0.01851 687.004543 229.682762 896 512.01234 896s511.956811-208.995457 511.956811-465.856143c0-113.314358-45.656444-222.70473-128.479701-308.032921a30.120913 30.120913 0 0 0-43.188528 41.95457c71.865711 74.037477 111.451082 168.521636 111.451082 266.066012-0.024679 223.667217-202.665253 405.589637-451.739664 405.589636S60.247997 653.798735 60.247997 430.143857c0-123.161342 61.31537-238.2526 168.237826-315.782177 18.509369-13.388444 27.147075-30.281328-15.745303-116.275857 98.173694 67.867687 110.92048 63.104609 124.259565 57.996023C464.899825 7.735374 616.997482 15.965873 738.949545 79.860216a30.108574 30.108574 0 1 0 27.936808-53.344002c-134.341001-70.42198-301.085738-80.836585-442.916864-29.812424-19.977779-9.131289-79.52859-47.877568-173.642562-118.114455a32.84796 32.84796 0 0 0-19.607592-6.589335z m23.741351 20.162873v-0.074038z m161.228945 107.588793zM459.458071 80.538893a221.53247 221.53247 0 0 0-51.826234 6.169789c-102.924432 24.679159-146.927372 112.771417-154.750665 130.170224a30.120913 30.120913 0 0 0 54.997505 24.568102c3.52912-7.897331 36.68557-77.73935 113.770923-96.248719 58.538965-14.067121 121.273387 5.688546 163.659842 51.542423a30.112276 30.112276 0 1 0 44.225052-40.881027c-44.792673-48.531566-106.848418-75.320793-170.076423-75.320792z"  horiz-adv-x="1024" />

    
    <glyph glyph-name="shangcheng" unicode="&#59304;" d="M856.192-96H167.808c-39.488 0-71.552 35.968-71.552 80.064V416h64v-431.936c0-10.368 5.696-16.064 7.552-16.064h688.384c1.856 0 7.616 5.696 7.616 16.064V416h64v-431.936c0-44.096-32.128-80.064-71.616-80.064zM679.424 154.304H344.512c-39.424 0-71.552 34.368-71.552 76.672V409.408h64v-178.432c0-7.616 4.544-12.672 7.552-12.672h334.912c3.072 0 7.552 4.928 7.552 12.672V409.408h64v-178.432c0-42.304-32.128-76.672-71.552-76.672zM897.984 369.536c-38.4 0-73.152 17.28-96.512 44.928a126.144 126.144 0 0 0-193.152-0.064c-23.232-27.52-57.92-44.8-96.256-44.864h-0.384a125.952 125.952 0 0 0-96 44.864 126.336 126.336 0 0 0-193.152 0.064 126.144 126.144 0 0 0-96.576-44.928A127.04 127.04 0 0 0 0.192 482.112l2.368 35.968c0.256 3.2 1.024 6.4 2.24 9.344L101.312 765.44c1.664 4.224 17.088 41.024 43.712 68.608C168.896 858.816 206.848 864 234.496 864c8 0 13.12-0.448 13.12-0.448l530.88 0.128c0.512 0.064 4.928 0.32 11.008 0.32 27.648 0 65.6-5.184 89.408-29.888 26.688-27.648 42.048-64.448 43.712-68.544l96.576-238.016c1.28-3.008 1.984-6.208 2.24-9.408l2.432-29.632c-7.616-70.592-61.696-118.976-125.888-118.976z m-99.008 148.672c16.256 0 34.88-12.16 36.736-28.352a63.04 63.04 0 0 1 62.272-56.256 63.104 63.104 0 0 1 62.272 56l-1.984 17.92-94.912 233.92c-0.128 0.256-12.096 29.12-30.528 48.192-4.864 5.184-20.288 10.368-43.328 10.368l-7.616-0.192-537.088-0.128-10.304 0.32c-23.04 0-38.4-5.184-43.392-10.368-18.368-19.072-30.4-48-30.528-48.256L65.984 507.968l-2.112-24.768c3.648-25.536 30.4-49.664 62.08-49.664a63.04 63.04 0 0 1 62.336 56.256c1.792 16.192 15.488 28.416 31.744 28.416s34.88-12.224 36.736-28.416a62.976 62.976 0 0 1 62.272-56.256c32 0 58.752 24.256 62.272 56.448 1.792 16.256 15.552 28.544 31.872 28.544s34.88-12.288 36.672-28.544a62.912 62.912 0 0 1 62.208-56.448c31.872 0 58.624 24.32 62.144 56.512 1.792 16.192 15.488 28.48 31.808 28.48s34.816-12.288 36.608-28.48a63.04 63.04 0 0 1 62.336-56.512 62.976 62.976 0 0 1 62.272 56.256 31.936 31.936 0 0 0 31.744 28.416z"  horiz-adv-x="1024" />

    
    <glyph glyph-name="diqiu" unicode="&#58948;" d="M512 832C264.6 832 64 631.4 64 384s200.6-448 448-448 448 200.6 448 448S759.4 832 512 832z m0-224c-29.5 0-58.3 2.6-86.2 7.5C452 720.7 491.4 776 512 776c20.6 0 60-55.3 86.2-160.5-27.9-4.8-56.7-7.5-86.2-7.5z m140.7 20.4c-13.6 55.7-31.8 102.6-53.1 137.4 63.6-14.6 121.3-44.7 169-86.1-35.3-21.8-74.3-39.1-115.9-51.3z m-281.4 0c-41.6 12.2-80.5 29.6-115.8 51.3 47.7 41.4 105.3 71.4 168.9 86-21.3-34.7-39.4-81.6-53.1-137.3zM679.5 412c-1.3 57.5-6.7 111.9-15.4 161.4 52.5 15 101.3 37.3 144.8 65.8 53.4-62 87.5-140.7 93.7-227.2H679.5z m-558.1 0c6.2 86.4 40.2 165.1 93.5 227.1 43.5-28.5 92.4-50.6 145-65.6-8.7-49.6-14.1-104-15.4-161.5H121.4z m279.1 0c1.3 55.7 6.4 105.4 13.9 148.7 31.6-5.6 64.1-8.7 97.6-8.7 33.4 0 66 3 97.6 8.6 7.5-43.3 12.5-93 13.9-148.6h-223z m408.4-283.2c-43.5 28.5-92.3 50.8-144.8 65.8 8.7 49.6 14.1 104 15.4 161.4h223.1c-6.2-86.5-40.3-165.2-93.7-227.2z m-394.5 78.5c-7.5 43.3-12.5 93-13.9 148.7h222.9c-1.3-55.6-6.3-105.3-13.9-148.6C578 213 545.4 216 512 216c-33.4 0-66-3.1-97.6-8.7zM215 128.9c-53.3 62-87.4 140.7-93.5 227.1h223.1c1.3-57.5 6.7-111.9 15.4-161.5-52.6-15-101.5-37.1-145-65.6zM512-8c-20.6 0-60 55.3-86.2 160.5 27.9 4.8 56.7 7.5 86.2 7.5s58.3-2.7 86.2-7.5C572 47.3 532.6-8 512-8z m87.6 10.2c21.3 34.8 39.5 81.7 53.1 137.4 41.7-12.2 80.6-29.5 115.9-51.2-47.7-41.5-105.4-71.6-169-86.2z m-175.2 0c-63.6 14.6-121.2 44.6-168.9 86 35.2 21.8 74.1 39.1 115.8 51.3 13.7-55.6 31.8-102.5 53.1-137.3z"  horiz-adv-x="1024" />

    
    <glyph glyph-name="diqiu1" unicode="&#59017;" d="M523.377778-59.733333C278.755556-59.733333 79.644444 139.377778 79.644444 384c0 244.622222 199.111111 443.733333 443.733334 443.733333S967.111111 628.622222 967.111111 384c0-244.622222-199.111111-443.733333-443.733333-443.733333z m0 849.54074C299.614815 789.807407 117.57037 607.762963 117.57037 384c0-223.762963 182.044444-405.807407 405.807408-405.807407C747.140741-21.807407 929.185185 160.237037 929.185185 384c0 223.762963-182.044444 405.807407-405.807407 405.807407zM523.377778-59.733333c-127.051852 0-225.659259 195.318519-225.659259 443.733333 0 248.414815 98.607407 443.733333 225.659259 443.733333S749.037037 632.414815 749.037037 384c0-248.414815-100.503704-443.733333-225.659259-443.733333z m0 849.54074c-102.4 0-187.733333-185.837037-187.733334-405.807407 0-219.97037 85.333333-405.807407 187.733334-405.807407s187.733333 185.837037 187.733333 405.807407c0 219.97037-87.22963 405.807407-187.733333 405.807407zM523.377778 543.288889c-117.57037 0-235.140741 30.340741-339.437037 87.22963-9.481481 5.688889-13.274074 17.066667-7.585185 26.548148 5.688889 9.481481 17.066667 13.274074 26.548148 7.585185 96.711111-53.096296 208.592593-81.540741 320.474074-81.540741 113.777778 0 223.762963 28.444444 322.37037 83.437037 9.481481 5.688889 20.859259 1.896296 26.548148-7.585185 5.688889-9.481481 1.896296-20.859259-7.585185-26.548148-104.296296-58.785185-221.866667-89.125926-341.333333-89.125926zM197.214815 90.074074c-7.585185 0-13.274074 3.792593-17.066667 9.481482-5.688889 9.481481-1.896296 20.859259 7.585185 26.548148 102.4 54.992593 218.074074 85.333333 333.748148 85.333333 115.674074 0 231.348148-28.444444 333.748149-83.437037 9.481481-5.688889 13.274074-17.066667 7.585185-26.548148-5.688889-9.481481-17.066667-13.274074-26.548148-7.585185-96.711111 53.096296-204.8 79.644444-314.785186 79.644444-109.985185 0-219.97037-28.444444-316.681481-79.644444-1.896296-3.792593-3.792593-3.792593-7.585185-3.792593zM948.148148 361.244444H98.607407c-11.377778 0-18.962963 7.585185-18.962963 18.962963s7.585185 18.962963 18.962963 18.962963H948.148148c11.377778 0 18.962963-7.585185 18.962963-18.962963s-9.481481-18.962963-18.962963-18.962963z"  horiz-adv-x="1024" />

    
    <glyph glyph-name="shangcheng1" unicode="&#58939;" d="M512 417.28c-115.7376 0-209.92 94.1824-209.92 209.92a25.6 25.6 0 0 0 51.2 0c0-87.5264 71.1936-158.72 158.72-158.72s158.72 71.1936 158.72 158.72a25.6 25.6 0 1 0 51.2 0c0-115.7376-94.1824-209.92-209.92-209.92zM716.8-38.4H307.2c-127.0272 0-230.4 103.3472-230.4 230.4v409.6c0 127.0272 103.3728 230.4 230.4 230.4h409.6c127.0528 0 230.4-103.3728 230.4-230.4v-409.6c0-127.0528-103.3472-230.4-230.4-230.4z m-409.6 819.2c-98.816 0-179.2-80.384-179.2-179.2v-409.6c0-98.7904 80.384-179.2 179.2-179.2h409.6c98.7904 0 179.2 80.4096 179.2 179.2v409.6c0 98.816-80.4096 179.2-179.2 179.2H307.2z"  horiz-adv-x="1024" />

    
    <glyph glyph-name="shangcheng2" unicode="&#58898;" d="M923.584-64H299.296a35.68 35.68 0 1 0 0 71.344h587.856V760.656H136.848v-711.232a36.432 36.432 0 0 0-72.848 0V796.336A35.696 35.696 0 0 0 100.416 832h823.152A35.696 35.696 0 0 0 960 796.336v-824.672A36.64 36.64 0 0 0 923.584-64zM512 384a287.04 287.04 0 0 0-288 284.8 35.552 35.552 0 0 0 71.104 0 216.896 216.896 0 0 1 433.776 0 35.552 35.552 0 0 0 71.104 0A287.04 287.04 0 0 0 512 384z"  horiz-adv-x="1024" />

    
    <glyph glyph-name="querenfangan" unicode="&#58923;" d="M609.581176-51.501176 109.025882-51.501176c-15.058824 0-27.708235 9.035294-27.708235 18.672941L81.317647 769.505882c0 10.24 13.251765 18.672941 27.708235 18.672941L162.635294 788.178824c9.637647 0 16.865882 7.830588 16.865882 16.865882 0 9.637647-7.830588 16.865882-16.865882 16.865882l-53.609412 0c-34.334118 0-62.042353-23.491765-62.042353-53.007059l0-801.731765c0-28.912941 27.708235-53.007059 62.042353-53.007059l500.555294 0c9.637647 0 16.865882 7.830588 16.865882 16.865882S619.218824-51.501176 609.581176-51.501176zM758.964706 788.178824l39.755294 0c15.058824 0 27.708235-9.035294 27.708235-18.672941l0-381.891765c0-9.637647 7.830588-16.865882 16.865882-16.865882 9.637647 0 16.865882 7.830588 16.865882 16.865882L860.16 769.505882c0 28.912941-27.708235 53.007059-62.042353 53.007059L758.964706 822.512941c-9.637647 0-16.865882-7.830588-16.865882-16.865882C742.098824 796.009412 749.327059 788.178824 758.964706 788.178824zM771.011765 546.635294c0 9.637647-7.830588 16.865882-16.865882 16.865882L156.611765 563.501176c-9.637647 0-16.865882-7.830588-16.865882-16.865882 0-9.637647 7.830588-16.865882 16.865882-16.865882l597.534118 0C763.783529 529.167059 771.011765 536.997647 771.011765 546.635294zM615.002353 341.232941c0 9.637647-7.830588 16.865882-16.865882 16.865882L156.611765 358.098824c-9.637647 0-16.865882-7.830588-16.865882-16.865882 0-9.637647 7.830588-16.865882 16.865882-16.865882l441.524706 0C607.774118 324.367059 615.002353 332.197647 615.002353 341.232941zM156.611765 153.901176c-9.637647 0-16.865882-7.830588-16.865882-16.865882 0-9.637647 7.830588-16.865882 16.865882-16.865882l360.207059 0c9.637647 0 16.865882 7.830588 16.865882 16.865882 0 9.637647-7.830588 16.865882-16.865882 16.865882L156.611765 153.901176zM239.134118 751.435294l438.512941 0c28.310588 0 51.802353 23.491765 51.802353 51.802353l0 4.216471c0 28.310588-23.491765 51.802353-51.802353 51.802353L239.134118 859.256471c-28.310588 0-51.802353-23.491765-51.802353-51.802353l0-4.216471C187.331765 774.324706 210.823529 751.435294 239.134118 751.435294zM244.555294 822.512941l428.272941 0c9.637647 0 16.865882-7.830588 16.865882-16.865882 0-9.637647-7.830588-16.865882-16.865882-16.865882L244.555294 788.781176c-9.637647 0-16.865882 7.830588-16.865882 16.865882C227.087059 814.682353 234.917647 822.512941 244.555294 822.512941zM786.070588 353.28c-119.868235 0-216.847059-97.581176-216.847059-216.847059s97.581176-216.847059 216.847059-216.847059 216.847059 97.581176 216.847059 216.847059S905.336471 353.28 786.070588 353.28zM786.070588-57.524706c-107.218824 0-193.957647 87.341176-193.957647 193.957647 0 107.218824 87.341176 193.957647 193.957647 193.957647s193.957647-87.341176 193.957647-193.957647C980.028235 29.816471 892.687059-57.524706 786.070588-57.524706zM884.254118 215.943529l-120.470588-122.88-77.101176 72.884706c-6.625882 6.625882-17.468235 6.023529-24.094118-0.602353-6.625882-6.625882-6.023529-17.468235 0.602353-24.094118l101.195294-95.774118 143.962353 146.371765c6.625882 6.625882 6.625882 17.468235 0 24.094118C901.722353 222.569412 890.88 222.569412 884.254118 215.943529z"  horiz-adv-x="1024" />

    
    <glyph glyph-name="zhuye" unicode="&#58942;" d="M458.759 768.925L149.194 550.822c-23.974-16.885-38.223-44.317-38.223-73.567v-416.367c0-22.442 18.259-40.633 40.779-40.633h196.4c31.416 0 56.88 25.374 56.88 56.677V126.11c0 22.44 18.259 40.633 40.784 40.633h130.313c22.523 0 40.784-18.193 40.784-40.633v-49.179c0-31.303 25.464-56.677 56.88-56.677h196.4c22.52 0 40.779 18.191 40.779 40.633V477.255c0 29.25-14.249 56.682-38.223 73.567L563.183 768.925c-31.292 22.047-73.132 22.047-104.424 0zM110.971 122.583v-61.695c0-22.442 18.259-40.633 40.779-40.633h36.999a434.815 434.815 0 0 0-77.778 102.328zM910.971 477.255c0 29.25-14.249 56.682-38.223 73.567l-14.934 10.522c23.751-37.647 41.866-79.204 53.156-123.49v39.401zM585.035 753.529l-21.852 15.395c-31.292 22.047-73.132 22.047-104.424 0l-10.322-7.272a438.35 438.35 0 0 0 42.706 2.085c32.241 0.001 63.659-3.527 93.892-10.208zM910.971 60.888V223.146c-19.976-78.356-61.308-148.175-117.436-202.891h76.657c22.52 0 40.779 18.191 40.779 40.633zM110.971 255.999v-133.416c20.78-37.914 47.062-72.384 77.778-102.328h109.215C206.6 68.642 137.702 153.793 110.971 255.999zM910.971 223.146V437.854c-11.29 44.286-29.406 85.843-53.156 123.49L585.035 753.53c-30.233 6.68-61.65 10.208-93.892 10.208-14.411 0-28.656-0.711-42.706-2.085l-69.058-48.654c29.829 7.664 61.097 11.741 93.318 11.741 206.484 0 373.873-167.389 373.873-373.873 0-140.713-77.738-263.266-192.607-327.065a56.934 56.934 0 0 1 19.83-3.546h119.743c56.127 54.715 97.459 124.534 117.435 202.89zM149.193 550.822c-23.974-16.885-38.223-44.317-38.223-73.567v-31.523c10.879 41.594 28.739 80.362 52.257 114.978l-14.034-9.888zM846.569 350.865c0 206.484-167.389 373.873-373.873 373.873-32.22 0-63.489-4.076-93.318-11.741L163.228 560.71c-23.518-34.616-41.379-73.385-52.257-114.978v-189.733c26.731-102.206 95.629-187.357 186.993-235.744h50.186c25.843 0 47.645 17.177 54.571 40.693-149.181 24.591-262.979 154.137-262.979 310.283 0 173.698 140.81 314.508 314.508 314.508s314.508-140.81 314.508-314.508c0-114.165-60.832-214.118-151.847-269.226v-25.074c0-24.352 15.414-45.11 37.05-53.131 114.87 63.8 192.608 186.353 192.608 327.065zM768.758 371.231c0 173.698-140.81 314.508-314.508 314.508s-314.508-140.81-314.508-314.508c0-156.146 113.799-285.692 262.979-310.283a56.494 56.494 0 0 1 2.309 15.983V126.11c0 4.173 0.634 8.199 1.807 11.989-127.27 14.386-226.177 122.382-226.177 253.497 0 140.912 114.232 255.144 255.144 255.144s255.144-114.232 255.144-255.144c0-97.262-54.428-181.804-134.482-224.853h19.662c22.523 0 40.784-18.193 40.784-40.633v-24.105c91.015 55.108 151.846 155.061 151.846 269.226zM690.948 391.596c0 140.912-114.232 255.144-255.144 255.144S180.66 532.508 180.66 391.596c0-131.115 98.907-239.112 226.176-253.497 5.135 16.588 20.642 28.644 38.978 28.644h110.651c80.055 43.05 134.483 127.592 134.483 224.853z m-273.59-175.413c-108.126 0-195.779 87.653-195.779 195.779s87.653 195.779 195.779 195.779 195.779-87.653 195.779-195.779-87.653-195.779-195.779-195.779zM417.358 607.741c-108.126 0-195.779-87.653-195.779-195.779s87.653-195.779 195.779-195.779 195.779 87.653 195.779 195.779-87.653 195.779-195.779 195.779z m-18.446-311.828c-75.339 0-136.414 61.075-136.414 136.414s61.075 136.414 136.414 136.414 136.414-61.075 136.414-136.414-61.075-136.414-136.414-136.414zM398.912 432.328m-136.414 0a136.414 136.414 0 1 1 272.828 0 136.414 136.414 0 1 1-272.828 0ZM510.971 767.46c15.072 0 29.542-4.582 41.845-13.25l309.568-218.104c19.153-13.49 30.587-35.49 30.587-58.851v-416.367c0-12.48-10.219-22.633-22.779-22.633h-196.4c-21.439 0-38.88 17.35-38.88 38.677V126.11c0 32.33-26.371 58.633-58.784 58.633H445.814c-32.414 0-58.784-26.303-58.784-58.633v-49.179c0-21.326-17.441-38.677-38.88-38.677h-196.4c-12.56 0-22.779 10.153-22.779 22.633V477.255c0 23.361 11.435 45.361 30.59 58.852L469.126 754.21c12.303 8.668 26.773 13.25 41.845 13.25m0 18c-18.283 0-36.566-5.512-52.212-16.535L149.193 550.822c-23.974-16.885-38.223-44.316-38.223-73.567v-416.367c0-22.442 18.259-40.633 40.779-40.633h196.4c31.416 0 56.88 25.374 56.88 56.677V126.11c0 22.44 18.259 40.633 40.784 40.633h130.313c22.523 0 40.784-18.193 40.784-40.633v-49.179c0-31.303 25.464-56.677 56.88-56.677h196.4c22.52 0 40.779 18.191 40.779 40.633V477.255c0 29.25-14.249 56.682-38.223 73.567L563.183 768.925c-15.646 11.023-33.929 16.535-52.212 16.535zM226.458 440.384c-6.152 0-11.14 4.987-11.14 11.14v2.977c0 22.057 10.532 42.743 28.25 55.477l228.81 164.468c23.058 16.574 54.124 16.574 77.183 0l228.81-164.468c17.718-12.734 28.25-33.419 28.25-55.477v-2.977c0-6.152-4.987-11.14-11.14-11.14H226.458zM175.98 231.876c-9.934 0-17.992 8.049-18 17.985l-0.101 124.121c-0.008 9.941 8.044 18.006 17.985 18.015h0.015c9.934 0 17.992-8.049 18-17.985l0.101-124.121c0.008-9.941-8.044-18.007-17.985-18.015h-0.015zM176.037 161.394c-9.935 0-17.991 8.049-18 17.985l-0.009 10.546c-0.008 9.94 8.044 18.007 17.985 18.015h0.016c9.934 0 17.991-8.049 18-17.985l0.009-10.546c0.008-9.94-8.044-18.006-17.985-18.015h-0.016z"  horiz-adv-x="1024" />

    
    <glyph glyph-name="redu" unicode="&#58946;" d="M898.603 337.454c0-222.832-179.086-403.472-400.001-403.472-220.914 0-399.999 180.64-399.999 403.472 0 103.306 25.289 173.912 62.068 238.837 31.318 55.282 75.865 102.026 117.244 122.896 53.459 26.964 49.59-102.878 101.146-64.925 85.061 62.605-10.998 237.498 64.367 220.284 121.842-27.824 161.411-155.308 190.807-169.27 62.141-29.515 49.195 121.788 151.724-6.958 112.644-141.446 112.644-253.297 112.644-340.864zM504.192 829.516c-17.64 10.943-37.729 19.769-60.763 25.029-22.463 5.131-29.696-6.807-31.036-27.75a424.767 424.767 0 0 0 58.451 4.027 425.944 425.944 0 0 0 33.348-1.306zM885.176 484.984c4.399-24.399 6.699-49.527 6.699-75.193 0-232.529-188.502-421.031-421.031-421.031-126.389 0-239.765 55.695-316.94 143.876C223.49 13.74 351.812-66.018 498.603-66.018c220.915 0 400.001 180.64 400.001 403.472-0.001 43.085-0.011 92.054-13.428 147.53zM564.963 775.316c-16.372 19.589-36.192 38.952-60.771 54.201a426.91 426.91 0 0 1-33.349 1.306 424.767 424.767 0 0 1-58.451-4.027c-0.651-10.178 0.089-22.482 1.15-35.989a367.335 367.335 0 0 0 39.374 2.116c39.1-0.001 76.755-6.178 112.047-17.607zM470.843-11.24c232.529 0 421.031 188.502 421.031 421.031 0 25.666-2.3 50.794-6.699 75.193-13.852 57.273-41.996 121.482-99.216 193.333-60.507 75.98-80.797 54.424-100.038 30.059 79.662-66.65 130.334-166.802 130.334-278.793 0-200.667-162.672-363.339-363.339-363.339-172.726 0-317.297 120.527-354.21 282.064a615.892 615.892 0 0 1-0.103-10.854c0-74.766 20.162-144.781 55.3-204.818 77.175-88.181 190.551-143.876 316.94-143.876zM452.917 66.244c200.667 0 363.339 162.673 363.339 363.339 0 111.991-50.672 212.143-130.334 278.793-13.362-16.921-26.218-35.198-51.686-23.101-16.096 7.645-35.243 49.323-69.273 90.041-35.292 11.429-72.948 17.606-112.046 17.606-13.305 0-26.44-0.722-39.374-2.116 0.9-11.448 2.028-23.759 2.736-36.371a310.176 310.176 0 0 0 18.712 0.587c168.804 0 305.647-136.843 305.647-305.647S603.795 143.728 434.99 143.728 129.343 280.571 129.343 449.375c0 34.423 5.695 67.515 16.186 98.39-27.219-55.067-45.366-116.582-46.823-199.457 36.913-161.537 181.485-282.064 354.211-282.064zM434.99 143.728c168.804 0 305.647 136.843 305.647 305.647S603.795 755.022 434.99 755.022c-6.286 0-12.521-0.213-18.712-0.587 0.692-12.329 0.979-24.944 0.255-37.32 0.177 0 0.353 0.007 0.531 0.007 136.942 0 247.955-111.013 247.955-247.955S554.006 221.212 417.064 221.212 169.109 332.225 169.109 469.167c0 98.906 57.916 184.276 141.678 224.075-8.276 9.108-18.502 13.194-32.873 5.946-41.379-20.87-85.925-67.614-117.244-122.896a572.397 572.397 0 0 1-15.142-28.526c-10.492-30.875-16.186-63.967-16.186-98.39 0.001-168.805 136.844-305.648 305.648-305.648zM169.109 469.167c0-136.942 111.013-247.955 247.955-247.955s247.955 111.013 247.955 247.955-111.013 247.955-247.955 247.955c-0.178 0-0.354-0.006-0.531-0.007-0.774-13.224-2.706-26.174-6.536-38.209 100.025-5.63 179.404-88.514 179.404-189.948 0-105.079-85.184-190.263-190.263-190.263s-190.263 85.184-190.263 190.263c0 79.854 49.201 148.207 118.937 176.428-5.176 10.35-10.492 20.667-17.024 27.855-83.763-39.799-141.679-125.168-141.679-224.074zM208.875 488.958c0-105.079 85.184-190.263 190.263-190.263s190.263 85.184 190.263 190.263c0 101.434-79.378 184.318-179.404 189.948-4.521-14.204-11.692-27.13-22.727-37.729 70.404-3.168 126.512-61.242 126.512-132.427 0-73.217-59.354-132.571-132.571-132.571s-132.57 59.354-132.57 132.571c0 60.623 40.691 111.741 96.251 127.533-6.369 7.346-11.648 18.241-17.08 29.102-69.736-28.22-118.937-96.572-118.937-176.427zM248.641 508.75c0-73.217 59.354-132.571 132.571-132.571s132.571 59.354 132.571 132.571c0 71.186-56.108 129.259-126.512 132.427a82.044 82.044 0 0 0-8.209-6.916c-15.28-11.248-25.692-7.757-34.17 2.022-55.56-15.792-96.251-66.91-96.251-127.533zM433.988 837.731c1.472 0 3.3-0.247 5.433-0.734 34.007-7.766 63.969-24.586 91.597-51.421 24.109-23.418 41.979-50.187 56.338-71.696 14.905-22.327 25.674-38.459 39.158-44.863 7.9-3.752 15.703-5.655 23.194-5.655 23.735 0 37.588 17.629 48.718 31.794 8.491 10.806 14.479 17.889 20.12 17.889 5.036 0 20.313-4.477 53.334-45.941 108.724-136.524 108.724-243.607 108.724-329.65 0-52.066-10.105-102.563-30.034-150.089-19.248-45.904-46.806-87.131-81.906-122.536-35.09-35.394-75.943-63.18-121.425-82.584-47.069-20.081-97.077-30.263-148.635-30.263-51.558 0-101.566 10.182-148.634 30.263-45.482 19.404-86.335 47.19-121.425 82.584-35.1 35.405-62.658 76.632-81.906 122.536-19.929 47.526-30.033 98.023-30.033 150.089 0 47.267 5.418 89.438 16.565 128.921 9.539 33.79 23.255 65.898 43.165 101.043 29.537 52.138 71.567 96.471 109.689 115.697 3.086 1.557 4.912 1.789 5.726 1.789 1.883 0 4.322-1.874 7.247-5.57 4.709-5.949 9.244-15.034 13.63-23.82 10.288-20.611 23.092-46.261 48.98-46.261 9.189 0 18.653 3.537 28.127 10.511 52.735 38.813 46.82 110.782 42.501 163.331-1.206 14.67-2.344 28.525-2.023 39.257 0.316 10.531 1.947 14.27 2.546 15.299 0.253 0.041 0.655 0.08 1.229 0.08m0 18c-57.362 0 26.173-161.78-54.927-221.47-6.665-4.906-12.401-7.008-17.457-7.008-30.326 0-36.086 75.651-69.857 75.651-4.152 0-8.736-1.147-13.832-3.717-41.379-20.87-85.925-67.614-117.244-122.896-36.779-64.925-62.068-135.531-62.068-238.837 0-222.832 179.086-403.472 399.999-403.472 220.915 0 400.001 180.64 400.001 403.472 0 87.567 0 199.418-112.644 340.863-31.565 39.636-52.182 52.729-67.418 52.728-29.677-0.004-38.921-49.683-68.835-49.683-4.613 0-9.725 1.185-15.471 3.914-29.397 13.962-68.966 141.445-190.807 169.27-3.509 0.801-6.638 1.185-9.44 1.185zM698.603 332.929c0-109.343-89.543-197.98-200-197.98-110.456 0-199.999 88.637-199.999 197.98 0 50.692 12.644 85.338 31.033 117.195 15.659 27.129 37.548 50.892 58.621 60.304 14.017 6.263 24.795-50.48 50.576-31.859 42.527 30.72 35.666 133.626 59.769 125.421 31.812-10.826 53.118-93.536 67.819-100.388 31.07-14.483 24.593 59.762 75.859-3.412 56.322-69.409 56.322-124.292 56.322-167.261zM199.992 498.881c-2.736 0-5.514 0.626-8.122 1.947-8.868 4.493-12.414 15.325-7.921 24.192 33.852 66.81 75.685 108.16 77.449 109.888 7.103 6.955 18.5 6.835 25.455-0.267 6.953-7.101 6.836-18.491-0.259-25.447-0.682-0.673-39.62-39.438-70.531-100.445-3.172-6.26-9.502-9.868-16.071-9.868zM173.377 432.772c-1.949 0-3.93 0.319-5.875 0.99-9.397 3.244-14.385 13.492-11.141 22.889l3.671 10.633c3.245 9.397 13.494 14.383 22.889 11.141 9.397-3.244 14.385-13.492 11.141-22.889l-3.671-10.633c-2.573-7.452-9.55-12.131-17.014-12.131z"  horiz-adv-x="1024" />

    
    <glyph glyph-name="shubao" unicode="&#58890;" d="M675.522107 71.887112H349.92286c-43.58984 0-78.991533 35.401693-78.991534 78.991533v322.709314c0 116.801505 95.126999 211.928504 211.928505 211.928504h59.725305c116.801505 0 211.928504-95.126999 211.928505-211.928504v-322.709314c0-43.349012-35.401693-78.991533-78.991534-78.991533z m-192.662276 599.420508c-108.854186 0-197.478833-88.624647-197.478834-197.478834v-322.709313c0-35.642521 28.899341-64.541863 64.541863-64.541862h325.599247c35.642521 0 64.541863 28.899341 64.541863 64.541862v322.709313c0 108.854186-88.624647 197.478833-197.478834 197.478834h-59.725305zM641.565381 72.609595H383.638758c-4.094073 0-7.224835 3.130762-7.224835 7.224836v144.978363c0 65.98683 53.70461 119.932267 119.932267 119.932267h32.752587c65.98683 0 119.932267-53.70461 119.932267-119.932267v-144.978363c-0.240828-4.094073-3.37159-7.224835-7.465663-7.224836z m-250.701787 14.449671h243.717779v137.753528c0 58.039511-47.202258 105.482596-105.482596 105.482596H496.105362c-58.039511 0-105.482596-47.202258-105.482596-105.482596v-137.753528zM630.005644 541.260583c-1.685795 0-3.37159 0.481656-4.575729 1.685795-50.814675 42.385701-104.037629 55.390405-157.983066 38.773283-40.699906-12.523048-66.709313-38.0508-66.950142-38.291627-2.889934-2.889934-7.465663-2.889934-10.114769 0-2.889934 2.889934-2.889934 7.465663 0 10.114769 1.204139 1.204139 28.417686 27.93603 72.248354 41.663218 40.699906 12.763876 103.555974 15.894638 172.191909-41.181562 3.130762-2.649106 3.37159-7.224835 0.963312-10.114769-1.685795-1.685795-3.853246-2.649106-5.779869-2.649107zM596.289746 489.723424c-1.685795 0-3.37159 0.481656-4.575729 1.685795-85.01223 70.803387-154.852305 3.37159-157.742239 0.481656-2.889934-2.889934-7.465663-2.889934-10.11477 0-2.889934 2.889934-2.889934 7.465663 0 10.114769 0.722484 0.722484 81.881468 79.714017 177.249295 0.481656 3.130762-2.649106 3.37159-7.224835 0.963311-10.114769-1.444967-1.685795-3.612418-2.649106-5.779868-2.649107zM275.266228 165.809972c-38.0508 0-69.117592 31.066792-69.117592 69.117591v87.179681c0 38.0508 31.066792 69.117592 69.117592 69.117591 4.094073 0 7.224835-3.130762 7.224835-7.224835s-3.130762-7.224835-7.224835-7.224835c-30.103481 0-54.667921-24.56444-54.667921-54.667921v-87.179681c0-30.103481 24.56444-54.667921 54.667921-54.66792 4.094073 0 7.224835-3.130762 7.224835-7.224836s-3.130762-7.224835-7.224835-7.224835zM751.623706 165.809972c-4.094073 0-7.224835 3.130762-7.224835 7.224835s3.130762 7.224835 7.224835 7.224836c30.103481 0 54.667921 24.56444 54.667921 54.66792v87.179681c0 30.103481-24.56444 54.667921-54.667921 54.667921-4.094073 0-7.224835 3.130762-7.224835 7.224835s3.130762 7.224835 7.224835 7.224835c38.0508 0 69.117592-31.066792 69.117592-69.117591v-87.179681c0-38.0508-31.066792-69.117592-69.117592-69.117591zM438.065851 665.768579c-0.722484 0-1.444967 0.240828-2.16745 0.481656-2.408278 1.204139-3.37159 4.094073-2.408279 6.502352 1.204139 2.408278 28.899341 60.447789 73.693321 63.096896 28.417686 1.685795 56.594544-19.266228 83.80809-62.61524 1.444967-2.167451 0.722484-5.298213-1.444967-6.74318-2.167451-1.444967-5.298213-0.722484-6.743179 1.444967-24.805268 39.977422-50.092192 59.484478-74.656633 58.039511-39.254939-2.408278-65.264346-57.076199-65.746001-57.557855-0.722484-1.685795-2.408278-2.649106-4.334902-2.649107zM563.777987 185.076199c-1.685795 0-3.37159 0.481656-4.575729 1.444968-1.685795 1.204139-2.889934 3.130762-3.130762 5.298212-0.722484 4.334901 2.408278 8.428975 6.743179 9.151458 2.167451 0.240828 4.094073-0.240828 6.020697-1.444967 1.685795-1.204139 2.889934-3.130762 3.130762-5.298212 0.240828-2.167451-0.240828-4.094073-1.444967-6.020697s-3.130762-2.889934-5.298213-3.130762h-1.444967z m0.240828 11.078081h-0.481656c-0.722484-0.240828-1.444967-0.481656-2.167451-1.204139-0.481656-0.722484-0.722484-1.444967-0.481655-2.408278 0.240828-0.722484 0.481656-1.444967 1.204139-2.167451 0.722484-0.481656 1.444967-0.722484 2.408278-0.481656 0.722484 0.240828 1.444967 0.481656 2.167451 1.20414s0.722484 1.444967 0.481656 2.408278c-0.240828 0.722484-0.481656 1.444967-1.20414 2.167451-0.722484 0.240828-1.444967 0.481656-1.926622 0.481655zM557.516463 179.055503c-1.685795 0-3.37159 1.204139-3.612418 3.130762-0.240828 0.963311 0 1.926623 0.722484 2.649107 0.481656 0.722484 1.444967 1.204139 2.408278 1.444967 1.926623 0.240828 3.853246-0.963311 4.094074-3.130762 0.240828-1.926623-0.963311-3.853246-3.130762-4.094074h-0.481656z m0 4.816557c-0.240828 0-0.240828 0 0 0-0.481656 0-0.722484-0.240828-0.963312-0.481655-0.240828-0.240828-0.240828-0.722484-0.240827-0.963312 0-0.722484 0.722484-1.204139 1.444967-0.963311 0.722484 0 1.204139 0.722484 0.963311 1.444967 0 0.240828-0.240828 0.722484-0.481656 0.722483-0.240828 0.240828-0.481656 0.240828-0.722483 0.240828zM578.468485 197.840075c-2.649106 0-5.298213 0.481656-7.706491 1.685795-12.523048 5.53904-16.376294 23.601129-8.669802 41.181562 0.240828 0.722484 0.722484 1.444967 1.204139 2.16745 0.240828 0.722484 0.481656 1.444967 1.204139 2.167451 3.612418 6.261524 8.669802 11.559737 14.208843 14.690499l26.250235 27.213546c1.444967 1.444967 3.612418 1.926623 5.539041 0.963312 1.926623-0.722484 2.889934-2.649106 2.889934-4.816557l-2.649106-37.569144c1.444967-6.261524 0.722484-13.486359-1.444967-20.470367 0-0.722484-0.240828-1.685795-0.722484-2.408279-0.240828-0.722484-0.722484-1.444967-0.963311-2.408278-6.74318-13.727187-18.302916-22.39699-29.14017-22.39699z m-6.261524 41.663218s-0.240828 0 0 0l-1.444967-2.889935c-5.298213-12.041392-3.612418-25.046096 3.853246-28.417685 7.465663-3.37159 18.302916 4.094073 23.601129 16.135465 0.481656 0.963311 0.722484 1.926623 1.204139 2.649107v0.240827c1.926623 5.779868 2.408278 11.559737 1.204139 16.376294 0 0.481656-0.240828 0.963311-0.240828 1.444967l1.685795 25.046096-17.339605-18.062088c-0.240828-0.240828-0.722484-0.722484-1.204139-0.963312-4.334901-2.408278-8.428975-6.502352-11.318909-11.800564v0.240828z"  horiz-adv-x="1024" />

    
    </font>
</defs>
</svg>
